<svg width="48" height="49" viewBox="0 0 48 49" fill="none" xmlns="http://www.w3.org/2000/svg">
    <rect x="0.5" y="1" width="47" height="47" rx="15.5" stroke="#ffffff" />
    <path
        d="M15.9966 6.48145C10.4746 6.48145 5.99658 10.9594 5.99658 16.4814V32.4814C5.99658 38.0034 10.4746 42.4814 15.9966 42.4814H31.9966C37.5186 42.4814 41.9966 38.0034 41.9966 32.4814V16.4814C41.9966 10.9594 37.5186 6.48145 31.9966 6.48145H15.9966ZM15.9966 10.4814H31.9966C35.3106 10.4814 37.9966 13.1674 37.9966 16.4814V32.4814C37.9966 35.7954 35.3106 38.4814 31.9966 38.4814H15.9966C12.6826 38.4814 9.99658 35.7954 9.99658 32.4814V16.4814C9.99658 13.1674 12.6826 10.4814 15.9966 10.4814ZM31.9966 14.4814C30.8926 14.4814 29.9966 15.3774 29.9966 16.4814C29.9966 17.5854 30.8926 18.4814 31.9966 18.4814C33.1006 18.4814 33.9966 17.5854 33.9966 16.4814C33.9966 15.3774 33.1006 14.4814 31.9966 14.4814ZM23.9966 16.4814C19.5786 16.4814 15.9966 20.0634 15.9966 24.4814C15.9966 28.8994 19.5786 32.4814 23.9966 32.4814C28.4146 32.4814 31.9966 28.8994 31.9966 24.4814C31.9966 20.0634 28.4146 16.4814 23.9966 16.4814ZM23.9966 20.4814C26.2066 20.4814 27.9966 22.2714 27.9966 24.4814C27.9966 26.6914 26.2066 28.4814 23.9966 28.4814C21.7866 28.4814 19.9966 26.6914 19.9966 24.4814C19.9966 22.2714 21.7866 20.4814 23.9966 20.4814Z"
        fill="#ffffff" />
</svg>