<svg width="46" height="45" viewBox="0 0 46 45" fill="none" xmlns="http://www.w3.org/2000/svg">
    <rect x="1" y="0.5" width="44" height="44" rx="15.5" stroke="#ffffff" />
    <path
        d="M37.2296 12.5362C35.3571 12.1357 33.6614 11.1475 32.3899 9.71579C31.1184 8.28404 30.3374 6.48358 30.1608 4.57687V3.75H23.7014V29.385C23.6974 30.5199 23.3379 31.625 22.6735 32.545C22.009 33.4651 21.073 34.1538 19.9969 34.5144C18.9208 34.8751 17.7588 34.8895 16.6741 34.5556C15.5894 34.2217 14.6366 33.5564 13.9496 32.6531C13.2518 31.7347 12.8648 30.6179 12.8446 29.4647C12.8243 28.3115 13.1719 27.1818 13.837 26.2395C14.5021 25.2972 15.45 24.5912 16.5433 24.2239C17.6367 23.8566 18.8186 23.8472 19.9177 24.1969V17.6344C17.4668 17.2956 14.9713 17.7313 12.7802 18.8806C10.5892 20.03 8.81213 21.8354 7.69771 24.0444C6.58328 26.2534 6.18719 28.7555 6.56484 31.2008C6.94249 33.646 8.07499 35.912 9.80393 37.6819C11.4527 39.3689 13.5668 40.5264 15.8764 41.0065C18.186 41.4866 20.5862 41.2676 22.7708 40.3774C24.9553 39.4873 26.8251 37.9663 28.1413 36.0088C29.4576 34.0512 30.1607 31.7458 30.1608 29.3869V16.2881C32.7713 18.1544 35.9012 19.1551 39.1102 19.1494V12.7312C38.4782 12.732 37.8479 12.6667 37.2296 12.5362Z"
        fill="#ffffff" />
</svg>