<svg width="48" height="49" viewBox="0 0 48 49" fill="none" xmlns="http://www.w3.org/2000/svg">
    <rect x="0.5" y="1" width="47" height="47" rx="15.5" stroke="#ffffff" />
    <path
        d="M23.9976 4.40637C12.9516 4.40637 3.99756 13.3608 3.99756 24.4064C3.99756 27.2744 4.63754 30.1308 5.87354 32.7814C4.23354 41.2514 4.05957 42.0314 4.05957 42.0314C3.79157 43.4186 4.98354 44.6066 6.37354 44.344C6.37354 44.344 7.13155 44.2128 15.6855 42.594C18.2675 43.8212 21.1296 44.4064 23.9976 44.4064C35.0436 44.4064 43.9976 35.452 43.9976 24.4064C43.9976 13.3608 35.0436 4.40637 23.9976 4.40637ZM23.9976 8.40637C32.8336 8.40637 39.9976 15.5698 39.9976 24.4064C39.9976 33.243 32.8336 40.4064 23.9976 40.4064C21.4836 40.4064 19.0695 39.816 16.8735 38.7188C16.4815 38.5236 16.0516 38.45 15.6216 38.5314C8.52158 39.8754 9.08556 39.7952 8.49756 39.9064C8.61356 39.3112 8.51354 39.929 9.87354 32.9064C9.95754 32.4716 9.88355 31.9894 9.68555 31.594C8.56955 29.3826 7.99756 26.9416 7.99756 24.4064C7.99756 15.5698 15.1616 8.40637 23.9976 8.40637ZM18.3735 14.4064C16.4975 14.4064 13.9976 16.9064 13.9976 18.7814C13.9976 21.1978 16.4976 25.6564 18.9976 28.1564C19.2676 28.4254 19.9776 29.1374 20.2476 29.4064C22.7476 31.9064 27.2056 34.4064 29.6216 34.4064C31.4976 34.4064 33.9976 31.9064 33.9976 30.0314C33.9976 28.1564 31.4976 25.6564 29.6216 25.6564C28.9976 25.6564 26.7356 26.9494 26.4976 26.9064C24.5056 26.5468 21.9136 23.892 21.4976 21.9064C21.4396 21.6292 22.7476 19.4064 22.7476 18.7814C22.7476 16.9064 20.2475 14.4064 18.3735 14.4064Z"
        fill="#ffffff" />
</svg>