<svg width="1024" height="251" viewBox="0 0 1024 251" fill="none" xmlns="http://www.w3.org/2000/svg">
<path d="M101.813 59.6874C102.703 59.6584 103.593 59.6294 104.51 59.5995C110.221 59.5445 113.512 60.1337 118 63.9999C120.133 66.121 120.133 66.121 122.125 68.4374C125.876 72.7274 129.689 76.9458 133.563 81.1249C134.1 81.7056 134.637 82.2862 135.19 82.8844C136.459 84.2568 137.73 85.6285 139 86.9999C139.755 86.2432 140.511 85.4866 141.289 84.707C142.778 83.2197 144.27 81.735 145.773 80.2616C148.863 77.2247 151.771 74.1274 154.563 70.8124C161.054 63.3217 168.309 60.7812 178 59.9999C182.417 59.8693 186.831 59.8834 191.25 59.9023C193.131 59.9044 193.131 59.9044 195.05 59.9066C198.357 59.9112 201.665 59.9201 204.972 59.9313C208.358 59.9416 211.743 59.9461 215.129 59.9511C221.753 59.9621 228.376 59.9788 235 59.9999C235.239 66.8159 233.628 71.1137 230.813 77.1874C230.231 78.5206 230.231 78.5206 229.639 79.8808C229.249 80.7387 228.859 81.5965 228.457 82.4804C227.931 83.639 227.931 83.639 227.394 84.821C225.512 87.7628 224.04 89.2136 221 90.9999C217.657 91.5531 214.366 91.5098 210.984 91.4687C210.014 91.4757 209.044 91.4828 208.044 91.49C203.906 91.5194 199.768 91.503 195.63 91.4906C192.602 91.4883 189.575 91.5093 186.547 91.5312C185.625 91.5199 184.703 91.5085 183.752 91.4969C172.094 91.5866 164.995 96.9386 157 105C155.197 106.969 153.451 108.973 151.719 111.004C149.815 113.215 147.876 115.376 145.875 117.5C145.254 118.17 144.632 118.841 143.992 119.531C142 121 142 121 139.563 121.5C135.979 120.801 134.613 119.138 132.125 116.5C131.254 115.583 130.382 114.667 129.484 113.723C126.902 110.892 124.332 108.059 121.844 105.144C119.85 102.825 117.823 100.538 115.789 98.2538C115.077 97.4541 114.365 96.6543 113.631 95.8302C113.093 95.2262 112.555 94.6222 112 93.9999C111.994 94.8702 111.988 95.7405 111.982 96.6372C111.924 104.833 111.852 113.029 111.764 121.225C111.72 125.439 111.68 129.652 111.654 133.866C111.628 137.932 111.587 141.997 111.537 146.063C111.52 147.615 111.509 149.167 111.502 150.719C111.493 152.891 111.465 155.062 111.432 157.234C111.421 158.47 111.41 159.707 111.399 160.982C111 164 111 164 109.599 165.898C106.366 168.126 102.352 167.469 98.5625 167.437C97.7034 167.457 96.8442 167.477 95.959 167.498C95.1282 167.497 94.2974 167.497 93.4414 167.496C92.6855 167.498 91.9295 167.5 91.1507 167.502C87.9565 166.756 86.9664 165.64 85 163C84.3962 159.912 84.4537 156.859 84.4824 153.721C84.4754 152.782 84.4684 151.844 84.4612 150.876C84.4436 147.773 84.4553 144.67 84.4688 141.566C84.4661 139.409 84.4622 137.252 84.4572 135.095C84.4513 130.573 84.4599 126.052 84.4785 121.53C84.5013 115.735 84.4882 109.94 84.4643 104.145C84.4498 99.69 84.4544 95.2352 84.4648 90.7802C84.4674 88.6436 84.4642 86.5069 84.4548 84.3703C84.4447 81.3826 84.4602 78.396 84.4824 75.4084C84.4744 74.5256 84.4663 73.6429 84.4579 72.7333C84.514 68.6682 84.6854 66.5159 86.8449 62.9744C91.1546 59.026 96.2903 59.7466 101.813 59.6874Z" fill="#FE6D0B"/>
<path d="M202.32 104.637C203.103 104.637 203.885 104.638 204.691 104.639C205.494 104.655 206.298 104.671 207.125 104.687C207.936 104.684 208.747 104.681 209.582 104.678C215.599 104.732 215.599 104.732 219 107C218.469 112.861 216.071 117.443 213.477 122.621C212.79 124.015 212.79 124.015 212.09 125.437C210.609 128.44 209.117 131.439 207.625 134.437C206.105 137.511 204.588 140.586 203.071 143.661C202.077 145.677 201.082 147.691 200.085 149.706C196.039 157.893 192.082 166.119 188.235 174.402C181.94 187.783 181.94 187.783 176.812 191C169.881 192.818 163.338 193.176 156.977 189.488C146.181 181.36 130.281 162.824 127.188 149.5C127.095 148.262 127.095 148.262 127 147C131.085 143.048 133.808 142.455 139.438 142.5C140.715 142.49 141.992 142.479 143.309 142.469C149.348 143.338 152.509 146.165 156.141 150.855C157.187 152.292 158.223 153.736 159.25 155.187C160.293 156.642 161.34 158.094 162.391 159.543C162.845 160.183 163.299 160.822 163.767 161.481C164.943 163.143 164.943 163.143 167 164C167.249 163.185 167.498 162.37 167.755 161.53C169.218 157.381 171.026 153.488 172.922 149.523C173.304 148.717 173.687 147.91 174.081 147.079C174.89 145.376 175.7 143.673 176.512 141.971C177.735 139.406 178.954 136.838 180.172 134.269C182.091 130.225 184.028 126.19 185.971 122.157C186.912 120.185 187.83 118.205 188.74 116.22C189.244 115.149 189.747 114.079 190.266 112.977C190.889 111.62 190.889 111.62 191.524 110.237C194.183 106.207 197.561 104.617 202.32 104.637Z" fill="#FE6A07"/>
<path d="M307.5 104.75C310.551 106.56 313.329 108.663 316 111C316.531 110.506 317.062 110.013 317.609 109.504C318.669 108.543 318.669 108.543 319.75 107.562C320.446 106.924 321.142 106.286 321.859 105.629C326.729 101.924 333.139 102.424 339 103C344.941 104.75 348.521 107.986 352 113C354.64 117.851 354.255 122.742 354.195 128.113C354.192 129.083 354.19 130.052 354.187 131.051C354.176 134.139 354.15 137.225 354.125 140.312C354.115 142.41 354.106 144.507 354.098 146.604C354.076 151.736 354.041 156.868 354 162C349.05 162 344.1 162 339 162C338.97 160.214 338.97 160.214 338.94 158.392C338.864 153.971 338.775 149.55 338.683 145.13C338.644 143.217 338.609 141.304 338.578 139.392C338.532 136.641 338.474 133.891 338.414 131.141C338.403 130.286 338.391 129.432 338.379 128.552C338.359 127.751 338.339 126.951 338.319 126.126C338.306 125.424 338.292 124.723 338.278 124C337.95 121.641 337.24 120.026 336 118C332.308 116.154 328.03 116.518 324 117C320.902 119.191 320.196 120.411 319 124C318.846 126.874 318.743 129.729 318.684 132.605C318.663 133.445 318.642 134.284 318.621 135.149C318.555 137.828 318.496 140.508 318.438 143.188C318.394 145.005 318.351 146.822 318.307 148.639C318.2 153.092 318.098 157.546 318 162C313.05 162 308.1 162 303 162C302.985 160.845 302.971 159.69 302.956 158.499C302.898 154.203 302.82 149.908 302.738 145.612C302.704 143.755 302.676 141.897 302.654 140.04C302.62 137.366 302.568 134.693 302.512 132.02C302.505 131.192 302.499 130.365 302.492 129.513C302.375 124.88 301.999 121.763 299 118C295.537 116.269 291.786 116.523 288 117C285.123 118.678 283.424 119.683 282.388 122.9C281.742 126.399 281.759 129.936 281.684 133.484C281.663 134.3 281.642 135.116 281.621 135.956C281.555 138.554 281.496 141.152 281.438 143.75C281.394 145.514 281.351 147.279 281.307 149.043C281.2 153.362 281.098 157.681 281 162C276.05 162 271.1 162 266 162C266 142.86 266 123.72 266 104C270.62 104 275.24 104 280 104C280.33 105.65 280.66 107.3 281 109C281.557 108.381 282.114 107.762 282.688 107.125C289.047 101.281 299.902 101.074 307.5 104.75Z" fill="#09161D"/>
<path d="M534.891 105.75C543.15 110.644 546.98 116.94 550 126C550.85 136.594 549.946 146.194 543.375 154.875C538.188 160.379 530.568 163.682 523.082 164.203C512.577 164.354 504.414 162.868 496.441 155.574C490.619 149.491 487.858 141.864 487.5 133.5C487.939 123.577 491.733 115.697 499 109C508.876 101.341 523.616 100.302 534.891 105.75Z" fill="#09171D"/>
<path d="M549 104C553.95 104 558.9 104 564 104C566.791 110.964 568.759 118.068 570.688 125.312C571.008 126.491 571.328 127.67 571.658 128.885C574 137.618 574 137.618 574 141C574.66 141 575.32 141 576 141C576.184 139.492 576.184 139.492 576.371 137.953C576.924 134.1 577.931 130.48 579.066 126.754C579.265 126.098 579.463 125.442 579.667 124.766C580.294 122.697 580.928 120.63 581.562 118.562C581.992 117.149 582.421 115.736 582.85 114.322C583.894 110.88 584.947 107.44 586 104C590.62 104 595.24 104 600 104C601.431 108.767 602.855 113.536 604.272 118.307C604.756 119.929 605.241 121.551 605.728 123.172C606.428 125.504 607.121 127.838 607.812 130.172C608.031 130.895 608.25 131.618 608.475 132.363C609.475 135.76 610 138.423 610 142C610.66 142 611.32 142 612 142C612.083 140.976 612.165 139.953 612.25 138.898C613.076 132.301 615.137 125.988 617 119.625C617.373 118.33 617.745 117.034 618.117 115.738C620.845 106.309 620.845 106.309 622 104C626.62 104 631.24 104 636 104C634.548 111.002 632.64 117.77 630.523 124.598C630.193 125.673 629.863 126.747 629.523 127.855C628.477 131.258 627.426 134.66 626.375 138.062C625.661 140.382 624.948 142.702 624.234 145.021C622.493 150.682 620.748 156.341 619 162C614.05 162 609.1 162 604 162C602.916 158.604 601.833 155.209 600.75 151.812C600.45 150.872 600.149 149.932 599.84 148.963C597.512 141.657 595.244 134.333 593 127C592.553 128.537 592.553 128.537 592.098 130.105C590.996 133.895 589.89 137.683 588.782 141.471C588.303 143.113 587.825 144.756 587.348 146.398C586.663 148.755 585.975 151.11 585.285 153.465C585.072 154.203 584.858 154.942 584.638 155.703C583.114 160.886 583.114 160.886 582 162C579.47 162.073 576.967 162.092 574.438 162.062C573.727 162.058 573.016 162.053 572.283 162.049C570.522 162.037 568.761 162.019 567 162C564.651 154.586 562.304 147.171 559.959 139.756C558.87 136.313 557.781 132.871 556.69 129.428C555.639 126.109 554.589 122.789 553.539 119.469C552.942 117.58 552.343 115.692 551.744 113.804C551.384 112.663 551.024 111.522 550.652 110.346C550.333 109.336 550.013 108.325 549.683 107.284C549 105 549 105 549 104Z" fill="#09161D"/>
<path d="M804 106C811.55 111.483 815.746 116.983 818 126C818 129.96 818 133.92 818 138C803.48 138 788.96 138 774 138C777.906 147.13 777.906 147.13 781.125 150.125C786.199 151.669 792.035 152.278 797.012 150.133C798.838 148.921 800.449 147.551 802 146C804.353 145.927 806.708 145.916 809.063 145.937C810.353 145.946 811.643 145.956 812.973 145.965C813.972 145.976 814.971 145.988 816 146C815.194 151.869 812.282 155.079 808 159C799.518 164.518 790.4 165.052 780.5 163.644C773.003 161.65 766.544 156.137 762.516 149.586C761.512 147.412 760.699 145.288 760 143C759.753 142.196 759.505 141.391 759.25 140.562C758.157 129.355 759.978 119.7 767.223 110.723C776.274 101.949 793.082 99.1845 804 106Z" fill="#09171E"/>
<path d="M699 82C703.95 82 708.9 82 714 82C714 91.24 714 100.48 714 110C716.31 108.02 718.62 106.04 721 104C727.36 101.88 734.97 102.142 741.148 104.824C746.889 108.47 750.278 113.514 752 120C752.262 123.261 752.233 126.504 752.195 129.773C752.192 130.697 752.19 131.621 752.187 132.573C752.176 135.507 752.15 138.441 752.125 141.375C752.115 143.371 752.106 145.367 752.098 147.363C752.076 152.242 752.041 157.121 752 162C747.05 162 742.1 162 737 162C736.985 160.845 736.971 159.69 736.956 158.499C736.898 154.203 736.82 149.908 736.738 145.612C736.704 143.755 736.676 141.897 736.654 140.04C736.62 137.366 736.568 134.693 736.512 132.02C736.505 131.192 736.499 130.365 736.492 129.513C736.375 124.88 735.999 121.763 733 118C729.285 116.143 725.044 116.415 721 117C718.176 119.19 716.585 120.83 715 124C714.843 126.842 714.742 129.663 714.684 132.508C714.663 133.348 714.642 134.189 714.621 135.055C714.555 137.745 714.496 140.435 714.438 143.125C714.394 144.947 714.351 146.768 714.307 148.59C714.199 153.06 714.098 157.53 714 162C709.05 162 704.1 162 699 162C699 135.6 699 109.2 699 82Z" fill="#0A181F"/>
<path d="M888 82C892.95 82 897.9 82 903 82C903.33 96.52 903.66 111.04 904 126C908.62 121.05 913.24 116.1 918 111C925 104 925 104 929.621 103.316C931.228 103.362 932.834 103.445 934.438 103.562C935.264 103.594 936.091 103.626 936.943 103.658C938.964 103.74 940.982 103.865 943 104C935.547 113.11 927.11 121.547 918 129C919.714 132.986 922.375 136.201 925.062 139.562C925.549 140.177 926.036 140.792 926.537 141.426C930.332 146.206 934.204 150.92 938.125 155.598C939.976 157.969 941.511 160.389 943 163C936.943 164.249 930.93 165.207 925 163C919.367 158.363 915.52 151.928 911.772 145.744C909.374 142.031 906.652 138.536 904 135C903.67 144.24 903.34 153.48 903 163C898.05 163 893.1 163 888 163C888 136.27 888 109.54 888 82Z" fill="#0A1920"/>
<path d="M358 104C363.61 104 369.22 104 375 104C379.62 116.87 384.24 129.74 389 143C392.943 133.641 392.943 133.641 396.422 124.176C397 122.481 397 122.481 397.59 120.752C398.164 119.049 398.164 119.049 398.75 117.312C399.534 114.995 400.32 112.679 401.109 110.363C401.619 108.852 401.619 108.852 402.14 107.31C403 105 403 105 404 104C406.53 103.927 409.033 103.908 411.562 103.937C412.629 103.944 412.629 103.944 413.717 103.951C415.478 103.963 417.239 103.981 419 104C416.757 112.253 413.666 120.091 410.438 128C409.358 130.66 408.281 133.322 407.207 135.984C406.937 136.653 406.667 137.322 406.389 138.011C404.603 142.451 402.882 146.91 401.199 151.391C400.764 152.548 400.328 153.706 399.879 154.898C399.07 157.062 398.267 159.229 397.474 161.398C393.784 171.232 389.611 181.286 379.711 186.117C376.56 187.143 373.994 187.198 370.688 187.125C369.619 187.107 368.55 187.089 367.449 187.07C366.641 187.047 365.833 187.024 365 187C364.866 178.964 364.866 178.964 366 175C366.675 174.948 367.351 174.897 368.047 174.844C373.361 174.258 373.361 174.258 377.59 171.297C380.033 166.741 380.101 164.08 379 159C377.884 155.598 376.608 152.263 375.324 148.922C374.958 147.955 374.591 146.989 374.214 145.993C373.044 142.91 371.866 139.83 370.688 136.75C369.906 134.694 369.126 132.638 368.346 130.582C364.967 121.692 361.551 112.823 358 104Z" fill="#09171E"/>
<path d="M868 105C874.953 109.624 878.999 115.263 882 123C882 123.33 882 123.66 882 124C879.435 124.163 876.88 124.281 874.312 124.375C873.231 124.45 873.231 124.45 872.127 124.527C866.794 124.673 866.794 124.673 864.45 122.686C863.228 121.18 862.109 119.592 861 118C857.323 115.926 854.184 115.488 850 116C845.582 118.339 843.127 120.494 841 125C840.711 127.765 840.579 130.247 840.625 133C840.613 133.699 840.602 134.397 840.59 135.117C840.615 139.601 841.214 142.47 844 146C847.054 148.957 849.232 149.41 853.437 149.375C857.729 149.26 860.647 148.905 864 146C864.495 145.01 864.495 145.01 865 144C870.28 144 875.56 144 881 144C878.268 152.197 873.699 157.83 866 162C858.581 164.968 849.733 165.454 842.25 162.437C833.676 157.98 828.394 152.061 825 143C822.662 133.424 823.775 124.309 828.254 115.547C832.261 108.952 836.953 105.888 843.812 102.687C851.958 100.931 860.429 101.367 868 105Z" fill="#0A171E"/>
<path d="M684.066 108.25C689.112 112.086 691.636 117.215 694 123C694 123.33 694 123.66 694 124C691.228 124.135 688.462 124.234 685.687 124.313C684.902 124.354 684.116 124.396 683.307 124.439C681.101 124.486 679.155 124.478 677 124C675.207 121.606 675.207 121.606 674 119C669.973 116.288 665.689 116.334 661 117C656.947 119.064 654.542 120.718 653 125C652.782 127.857 652.675 130.583 652.687 133.438C652.671 134.188 652.655 134.939 652.639 135.713C652.635 140.305 653.056 143.263 656 147C660.501 150.293 664.209 150.216 669.535 149.813C672.252 149.143 672.252 149.143 674.289 146.457C677.533 143.517 678.927 143.465 683.127 143.561C684.209 143.623 684.209 143.623 685.312 143.688C686.053 143.71 686.794 143.733 687.557 143.756C689.372 143.814 691.186 143.904 693 144C692.251 150.648 687.723 154.611 683 159C675.368 164.044 667.933 164.728 659 164C651.382 162.081 644.566 157.133 640.426 150.465C635.745 141.358 634.458 132.718 637.25 122.688C639.918 114.87 644.623 108.761 652.031 104.957C662.842 100.786 674.254 102.314 684.066 108.25Z" fill="#0A171D"/>
<path d="M451.312 80.875C452.567 80.893 453.821 80.9111 455.113 80.9297C456.542 80.9645 456.542 80.9645 458 81C458 84.63 458 88.26 458 92C456.391 91.8762 456.391 91.8762 454.75 91.75C451.062 91.6966 451.062 91.6966 448.625 93.5C446.34 97.015 446.278 99.8345 446 104C450.29 104 454.58 104 459 104C459 107.96 459 111.92 459 116C454.71 116 450.42 116 446 116C446 131.18 446 146.36 446 162C441.05 162 436.1 162 431 162C431 146.82 431 131.64 431 116C427.7 116 424.4 116 421 116C421 112.04 421 108.08 421 104C424.3 104 427.6 104 431 104C430.965 103.276 430.93 102.551 430.895 101.805C430.614 91.787 430.614 91.787 434 87C439.397 81.887 443.97 80.7377 451.312 80.875Z" fill="#091820"/>
<path d="M466 82C470.95 82 475.9 82 481 82C481 108.4 481 134.8 481 162C476.05 162 471.1 162 466 162C466 135.6 466 109.2 466 82Z" fill="#0A1B23"/>
<path d="M530 119C534.969 124.521 535.293 128.775 535.215 135.984C534.832 141.353 533.473 144.635 529.438 148.375C524.656 151.563 520.655 151.478 515 151C509.632 149.111 506.54 146.08 504 141C503.822 138.4 503.723 135.852 503.688 133.25C503.659 132.546 503.63 131.842 503.6 131.117C503.537 125.955 504.624 123.104 508 119C514.917 113.985 523.093 113.627 530 119Z" fill="#F9F9FA"/>
<path d="M199.766 106.886C200.515 106.892 201.264 106.897 202.035 106.902C202.844 106.906 203.653 106.909 204.486 106.912C205.336 106.92 206.187 106.929 207.062 106.938C207.917 106.942 208.771 106.947 209.65 106.951C211.767 106.963 213.883 106.981 216 107C216.59 109.387 216.59 109.387 217 112C215.562 113.812 215.562 113.812 214 115C213.01 114.67 212.02 114.34 211 114C211.495 115.485 211.495 115.485 212 117C212.495 118.485 212.495 118.485 213 120C211.201 123.124 209.384 124.77 206 126C204.68 126 203.36 126 202 126C201.711 126.949 201.423 127.897 201.125 128.875C200 132 200 132 198 134C200.64 132.68 203.28 131.36 206 130C205.537 136.276 203.346 140.91 200.438 146.438C200.013 147.264 199.588 148.091 199.15 148.943C198.109 150.967 197.059 152.986 196 155C195.01 154.34 194.02 153.68 193 153C193 152.34 193 151.68 193 151C192.67 152.32 192.34 153.64 192 155C191.01 154.67 190.02 154.34 189 154C189.33 152.35 189.66 150.7 190 149C187.525 149.495 187.525 149.495 185 150C184.67 147.36 184.34 144.72 184 142C183.34 142.66 182.68 143.32 182 144C180.68 144 179.36 144 178 144C180.005 137.672 182.718 131.715 185.485 125.694C186.081 124.394 186.67 123.09 187.254 121.784C188.102 119.887 188.967 117.998 189.836 116.109C190.347 114.985 190.858 113.861 191.384 112.702C193.078 109.87 193.971 109.106 197 108C198 107 198 107 199.766 106.886Z" fill="#FE700D"/>
<path d="M107 77C109.875 77.1875 109.875 77.1875 113 78C114.375 80.5625 114.375 80.5625 115 83C115.33 82.34 115.66 81.68 116 81C116.99 81.33 117.98 81.66 119 82C118.34 84.31 117.68 86.62 117 89C116.67 88.01 116.34 87.02 116 86C116 87.32 116 88.64 116 90C116 91.32 116 92.64 116 94C116.66 94 117.32 94 118 94C118.248 94.9488 118.495 95.8975 118.75 96.875C119.686 100.087 119.686 100.087 122.125 101.375C122.744 101.581 123.363 101.787 124 102C124.268 101.031 124.536 100.061 124.812 99.0625C125.204 98.0519 125.596 97.0412 126 96C126.99 95.67 127.98 95.34 129 95C130.044 98.1335 129.934 98.9897 129 102C129.66 102 130.32 102 131 102C130.67 102.99 130.34 103.98 130 105C129.34 105 128.68 105 128 105C130.605 110.811 133.021 114.954 138 119C140.157 118.727 140.157 118.727 142 118C142.33 116.35 142.66 114.7 143 113C143.33 113.66 143.66 114.32 144 115C144.66 114.67 145.32 114.34 146 114C146.37 109.954 146.37 109.954 144 107C144.495 106.423 144.99 105.845 145.5 105.25C147.37 102.896 147.37 102.896 147 99C147.99 99 148.98 99 150 99C150.66 100.32 151.32 101.64 152 103C152 102.34 152 101.68 152 101C152.33 100.34 152.66 99.68 153 99C150.099 98.322 150.099 98.322 147 98C146.34 98.66 145.68 99.32 145 100C144.505 98.515 144.505 98.515 144 97C143.01 96.34 142.02 95.68 141 95C143 94 143 94 145.812 93.75C149.802 92.8113 151.349 91.041 154 88C156.511 89.2554 156.871 90.5006 158 93C157.34 93.66 156.68 94.32 156 95C155.34 94.67 154.68 94.34 154 94C154.66 94.66 155.32 95.32 156 96C156.99 95.67 157.98 95.34 159 95C159 94.01 159 93.02 159 92C159.99 92 160.98 92 162 92C162 90.02 162 88.04 162 86C165 87 165 87 167 89C167.33 88.01 167.66 87.02 168 86C168.99 86.33 169.98 86.66 171 87C171 88.32 171 89.64 171 91C171.567 90.8373 172.135 90.6747 172.719 90.5071C175.061 89.9865 177.098 89.8796 179.493 89.8865C180.814 89.8866 180.814 89.8866 182.162 89.8867C183.103 89.8919 184.045 89.897 185.016 89.9023C186.472 89.9045 186.472 89.9045 187.958 89.9066C191.055 89.9122 194.153 89.9248 197.25 89.9375C199.352 89.9425 201.453 89.9471 203.555 89.9512C208.703 89.9622 213.852 89.9794 219 90C219 90.33 219 90.66 219 91C217.117 91.014 217.117 91.014 215.196 91.0283C210.504 91.0684 205.814 91.1342 201.123 91.2075C199.099 91.2356 197.075 91.2569 195.051 91.271C192.128 91.2926 189.207 91.3393 186.285 91.3906C185.391 91.3919 184.497 91.3931 183.576 91.3943C172.042 91.6587 164.918 97.0163 157 105C155.197 106.969 153.451 108.973 151.719 111.004C149.815 113.215 147.876 115.376 145.875 117.5C145.254 118.17 144.632 118.841 143.992 119.531C142 121 142 121 139.562 121.5C135.979 120.801 134.613 119.139 132.125 116.5C131.254 115.583 130.382 114.667 129.484 113.723C126.264 110.193 123.11 106.629 120 103C117.36 100.03 114.72 97.06 112 94C111.67 117.1 111.34 140.2 111 164C110.01 164.495 110.01 164.495 109 165C109.33 140.91 109.66 116.82 110 92C108.02 92.99 108.02 92.99 106 94C105.67 93.01 105.34 92.02 105 91C106.98 90.34 108.96 89.68 111 89C110.67 88.34 110.34 87.68 110 87C109.01 86.67 108.02 86.34 107 86C107.33 85.01 107.66 84.02 108 83C108.66 83 109.32 83 110 83C110 82.01 110 81.02 110 80C109.34 79.67 108.68 79.34 108 79C107.67 79.66 107.34 80.32 107 81C106.67 80.34 106.34 79.68 106 79C106.33 78.34 106.66 77.68 107 77Z" fill="#FE5E07"/>
<path d="M85 67C85.33 67 85.66 67 86 67C86.0198 67.5849 86.0396 68.1698 86.0601 68.7725C86.1555 71.4321 86.2651 74.0909 86.375 76.75C86.4059 77.6704 86.4369 78.5908 86.4688 79.5391C86.5074 80.4285 86.5461 81.318 86.5859 82.2344C86.6174 83.0513 86.6488 83.8683 86.6812 84.71C86.8775 87.0466 86.8775 87.0466 88.0806 89.0947C89 91 89 91 88.125 94.25C87.7537 95.1575 87.3825 96.065 87 97C87.66 97 88.32 97 89 97C88.9652 98.338 88.9652 98.338 88.9297 99.7031C88.9116 100.874 88.8936 102.044 88.875 103.25C88.8518 104.41 88.8286 105.57 88.8047 106.766C88.9896 109.828 89.3918 111.442 91 114C89.515 114.495 89.515 114.495 88 115C88 115.99 88 116.98 88 118C87.67 118.99 87.34 119.98 87 121C87.99 121.33 88.98 121.66 90 122C89.34 122 88.68 122 88 122C88.3713 123.052 88.7425 124.104 89.125 125.188C90.0428 129.186 89.9138 130.491 88 134C88.9694 134.268 89.9388 134.536 90.9375 134.812C91.9481 135.204 92.9588 135.596 94 136C94.33 136.99 94.66 137.98 95 139C94.34 139 93.68 139 93 139C93.33 141.64 93.66 144.28 94 147C91.03 147.495 91.03 147.495 88 148C89.65 148.33 91.3 148.66 93 149C93 149.66 93 150.32 93 151C90.525 151.99 90.525 151.99 88 153C87.67 156.63 87.34 160.26 87 164C86.34 163.67 85.68 163.34 85 163C85 131.32 85 99.64 85 67Z" fill="#FE5B05"/>
<path d="M797.812 116.25C800.379 118.303 801.645 120.006 803 123C803 124.65 803 126.3 803 128C793.43 128 783.86 128 774 128C776.261 120.086 776.261 120.086 779.375 117.625C780.253 116.902 780.253 116.902 781.148 116.164C786.384 112.872 792.393 113.841 797.812 116.25Z" fill="#F3F4F5"/>
<path d="M207 104.812C207.82 104.8 208.64 104.788 209.484 104.775C210.273 104.773 211.062 104.772 211.875 104.77C212.594 104.765 213.314 104.761 214.055 104.757C216 105 216 105 219 107C218.516 113.264 215.63 118.343 212.871 123.867C212.362 124.902 211.853 125.937 211.328 127.003C209.705 130.297 208.072 133.586 206.438 136.875C205.333 139.112 204.23 141.349 203.127 143.586C200.426 149.061 197.717 154.532 195 160C194.34 160 193.68 160 193 160C193 159.01 193 158.02 193 157C193.66 157 194.32 157 195 157C195.383 155.737 195.383 155.737 195.773 154.449C197.332 150.067 199.445 146.049 201.609 141.947C203.085 139.086 204 137.269 204 134C204.66 134 205.32 134 206 134C205.505 132.515 205.505 132.515 205 131C201.735 132.804 200.111 133.834 198 137C197.67 135.68 197.34 134.36 197 133C197.99 132.67 198.98 132.34 200 132C199.505 130.515 199.505 130.515 199 129C199.66 128.67 200.32 128.34 201 128C201 127.01 201 126.02 201 125C203.64 125 206.28 125 209 125C209.33 124.34 209.66 123.68 210 123C210.588 122.072 210.588 122.072 211.188 121.125C211.456 120.424 211.724 119.723 212 119C211.092 116.933 211.092 116.933 210 115C210.33 114.01 210.66 113.02 211 112C212.32 112.66 213.64 113.32 215 114C215.33 112.02 215.66 110.04 216 108C213.25 107.973 210.5 107.953 207.75 107.938C206.973 107.929 206.195 107.921 205.395 107.912C204.64 107.909 203.886 107.906 203.109 107.902C202.418 107.897 201.727 107.892 201.015 107.886C198.848 108.009 197.048 108.272 195 109C193.642 111.107 192.604 113.051 191.562 115.312C191.234 115.995 190.905 116.678 190.567 117.382C189.358 119.912 188.177 122.455 187 125C186.237 126.645 186.237 126.645 185.459 128.324C184.912 129.506 184.365 130.688 183.801 131.906C183.52 132.513 183.238 133.12 182.949 133.745C181.539 136.789 180.137 139.835 178.744 142.886C175.437 150.092 171.902 157.098 168 164C167.67 163.34 167.34 162.68 167 162C167.889 159.707 167.889 159.707 169.324 156.812C169.853 155.733 170.382 154.653 170.926 153.541C171.507 152.372 172.089 151.204 172.688 150C173.891 147.554 175.088 145.105 176.285 142.656C176.593 142.028 176.9 141.4 177.217 140.753C179.354 136.374 181.417 131.967 183.434 127.531C183.971 126.35 184.508 125.17 185.062 123.953C186.089 121.685 187.111 119.414 188.128 117.141C188.593 116.115 189.059 115.088 189.539 114.031C190.145 112.679 190.145 112.679 190.764 111.299C194.504 104.342 199.887 104.818 207 104.812Z" fill="#FD5209"/>
<path d="M432 94C432.33 94 432.66 94 433 94C433.027 95.6457 433.046 97.2916 433.062 98.9375C433.074 99.854 433.086 100.771 433.098 101.715C433 104 433 104 432 105C428.997 105.142 426.008 105.042 423 105C423 107.97 423 110.94 423 114C424.918 113.938 424.918 113.938 426.875 113.875C429.055 113.805 429.055 113.805 431 114C433 116 433 116 433.241 117.949C433.236 118.744 433.232 119.539 433.227 120.358C433.227 121.709 433.227 121.709 433.227 123.088C433.216 124.062 433.206 125.036 433.195 126.039C433.192 127.035 433.19 128.031 433.187 129.057C433.176 132.247 433.15 135.436 433.125 138.625C433.115 140.784 433.106 142.943 433.098 145.102C433.076 150.401 433.041 155.701 433 161C436.63 161 440.26 161 444 161C444 145.49 444 129.98 444 114C448.29 114 452.58 114 457 114C457.495 112.515 457.495 112.515 458 111C458.495 113.475 458.495 113.475 459 116C454.71 116 450.42 116 446 116C446 131.18 446 146.36 446 162C441.05 162 436.1 162 431 162C431 146.82 431 131.64 431 116C427.7 116 424.4 116 421 116C421 112.04 421 108.08 421 104C424.3 104 427.6 104 431 104C430.979 102.536 430.959 101.071 430.938 99.5625C430.916 98.0417 430.928 96.5193 431 95C431.33 94.67 431.66 94.34 432 94Z" fill="#000406"/>
<path d="M466 82C470.95 82 475.9 82 481 82C481 108.4 481 134.8 481 162C476.05 162 471.1 162 466 162C466 135.6 466 109.2 466 82ZM467 84C467 109.41 467 134.82 467 161C470.96 161 474.92 161 479 161C479 135.59 479 110.18 479 84C475.04 84 471.08 84 467 84Z" fill="#000102"/>
<path d="M888 82C892.95 82 897.9 82 903 82C903 96.52 903 111.04 903 126C902.01 126.495 902.01 126.495 901 127C901 112.81 901 98.62 901 84C897.04 84 893.08 84 889 84C889 109.41 889 134.82 889 161C892.96 161 896.92 161 901 161C901 152.09 901 143.18 901 134C901.66 134 902.32 134 903 134C903 143.57 903 153.14 903 163C898.05 163 893.1 163 888 163C888 136.27 888 109.54 888 82Z" fill="#010305"/>
<path d="M141 144C143.31 144.33 145.62 144.66 148 145C148 145.66 148 146.32 148 147C149.32 147.33 150.64 147.66 152 148C152 148.66 152 149.32 152 150C151.01 150.66 150.02 151.32 149 152C149 152.99 149 153.98 149 155C147.02 155 145.04 155 143 155C142.67 155.66 142.34 156.32 142 157C141.67 156.67 141.34 156.34 141 156C141.33 157.65 141.66 159.3 142 161C140.02 161.66 138.04 162.32 136 163C133.639 160.853 132.286 158.915 131 156C130.608 155.196 130.216 154.391 129.812 153.562C128.87 150.589 129.097 148.954 130 146C131 145 131 145 134.562 144.938C135.697 144.958 136.831 144.979 138 145C138 145.66 138 146.32 138 147C140.167 146.167 140.167 146.167 141 144ZM147 147C148 149 148 149 148 149L147 147Z" fill="#FE6A06"/>
<path d="M107 77C109.875 77.1875 109.875 77.1875 113 78C114.375 80.5625 114.375 80.5625 115 83C115.33 82.34 115.66 81.68 116 81C116.99 81.33 117.98 81.66 119 82C118.34 84.31 117.68 86.62 117 89C116.67 88.01 116.34 87.02 116 86C116 87.32 116 88.64 116 90C116 91.6667 116 93.3333 116 95C114.68 94.67 113.36 94.34 112 94C111.67 117.1 111.34 140.2 111 164C110.01 164.495 110.01 164.495 109 165C109.33 140.91 109.66 116.82 110 92C108.02 92.99 108.02 92.99 106 94C105.67 93.01 105.34 92.02 105 91C106.98 90.34 108.96 89.68 111 89C110.67 88.34 110.34 87.68 110 87C109.01 86.67 108.02 86.34 107 86C107.33 85.01 107.66 84.02 108 83C108.66 83 109.32 83 110 83C110 82.01 110 81.02 110 80C109.34 79.67 108.68 79.34 108 79C107.67 79.66 107.34 80.32 107 81C106.67 80.34 106.34 79.68 106 79C106.33 78.34 106.66 77.68 107 77Z" fill="#FC4D05"/>
<path d="M198 60C210.21 60 222.42 60 235 60C235 66.1037 234.982 67.9116 232.5 72.9375C232.036 73.8953 231.572 74.853 231.094 75.8398C230.733 76.5527 230.372 77.2655 230 78C229 75 229 75 230.5 71.6875C232.491 67.7154 232.491 67.7154 231 62C222.75 62 214.5 62 206 62C206.33 63.32 206.66 64.64 207 66C207 66.99 207 67.98 207 69C206.01 69 205.02 69 204 69C204 68.01 204 67.02 204 66C203.381 66.3506 202.762 66.7012 202.125 67.0625C201.424 67.3719 200.723 67.6813 200 68C199.34 67.67 198.68 67.34 198 67C198.33 68.32 198.66 69.64 199 71C198.01 71.33 197.02 71.66 196 72C195.34 71.67 194.68 71.34 194 71C194 70.34 194 69.68 194 69C194.99 69 195.98 69 197 69C197 68.01 197 67.02 197 66C196.34 65.67 195.68 65.34 195 65C195.66 64.67 196.32 64.34 197 64C197.33 62.68 197.66 61.36 198 60Z" fill="#FE6906"/>
<path d="M817 129C817.33 129 817.66 129 818 129C818 131.97 818 134.94 818 138C803.48 138 788.96 138 774 138C777.906 147.13 777.906 147.13 781.125 150.125C787.091 151.941 792.922 151.845 798.688 149.5C799.451 149.005 800.214 148.51 801 148C800 151 800 151 796.875 152.688C792.431 154.389 788.519 154.881 783.922 153.273C779.57 151.291 776.416 149.253 774 145C773.346 142.259 773.142 139.843 773 137C774 136 774 136 777.969 135.886C779.741 135.887 781.513 135.892 783.285 135.902C784.216 135.904 785.147 135.905 786.106 135.907C789.091 135.912 792.077 135.925 795.062 135.938C797.081 135.943 799.1 135.947 801.119 135.951C806.079 135.962 811.04 135.979 816 136C815.979 135.031 815.959 134.061 815.938 133.062C816 130 816 130 817 129Z" fill="#020508"/>
<path d="M714 121C715.303 124.909 715.014 128.543 714.879 132.605C714.855 133.445 714.832 134.284 714.807 135.149C714.731 137.828 714.647 140.508 714.562 143.188C714.509 145.005 714.457 146.822 714.404 148.639C714.275 153.093 714.139 157.546 714 162C707.07 161.505 707.07 161.505 700 161C700 160.67 700 160.34 700 160C703.63 160 707.26 160 711 160C711 148.78 711 137.56 711 126C711.66 126 712.32 126 713 126C713.33 124.35 713.66 122.7 714 121Z" fill="#182327"/>
<path d="M178.375 60.875C179.479 60.8886 179.479 60.8886 180.605 60.9024C182.404 60.9257 184.202 60.9616 186 61C186 61.33 186 61.66 186 62C183.36 62 180.72 62 178 62C178 62.99 178 63.98 178 65C178.66 65 179.32 65 180 65C180 64.34 180 63.68 180 63C180.99 63.33 181.98 63.66 183 64C183.33 64.99 183.66 65.98 184 67C182.886 66.9794 181.773 66.9588 180.625 66.9375C177.168 66.7362 177.168 66.7362 175 68C174.34 67.34 173.68 66.68 173 66C172.01 66.33 171.02 66.66 170 67C168.669 67.3423 167.336 67.6776 166 68C166 67.34 166 66.68 166 66C165.34 65.67 164.68 65.34 164 65C164 66.32 164 67.64 164 69C162.907 69.2888 161.814 69.5775 160.688 69.875C156.96 70.819 156.96 70.819 154 73C155.39 69.7242 156.899 67.9858 159.75 65.875C160.405 65.3775 161.06 64.8799 161.734 64.3672C167.206 61.0652 172.176 60.7293 178.375 60.875Z" fill="#FE6406"/>
<path d="M192 162C193.486 166.459 191.436 168.815 189.422 172.889C188.656 174.398 188.656 174.398 187.875 175.938C187.144 177.441 187.144 177.441 186.398 178.975C181.114 189.509 181.114 189.509 174.984 191.73C167.422 192.758 161.403 192.415 155 188C152 185.375 152 185.375 150 183C150 182.34 150 181.68 150 181C150.66 181 151.32 181 152 181C153.22 182.477 154.438 183.959 155.586 185.492C158.381 188.473 160.51 188.969 164.602 189.23C165.943 189.227 167.284 189.212 168.625 189.188C169.306 189.187 169.986 189.186 170.688 189.186C174.47 189.197 174.47 189.197 178 188C178.39 186.135 178.39 186.135 178.5 184C178.656 181.812 178.656 181.812 179 180C179.66 179.67 180.32 179.34 181 179C181.99 179.33 182.98 179.66 184 180C184.398 178.712 184.398 178.712 184.805 177.398C186.01 173.971 187.472 170.858 189.125 167.625C189.664 166.565 190.203 165.506 190.758 164.414C191.168 163.617 191.578 162.821 192 162Z" fill="#FC4D0B"/>
<path d="M198 60C210.21 60 222.42 60 235 60C235 66.1037 234.982 67.9116 232.5 72.9375C232.036 73.8953 231.572 74.853 231.094 75.8398C230.733 76.5527 230.372 77.2655 230 78C229 75 229 75 230.5 71.6875C232.491 67.7154 232.491 67.7154 231 62C220.11 61.67 209.22 61.34 198 61C198 60.67 198 60.34 198 60Z" fill="#FD4E04"/>
<path d="M139.625 142.688C140.306 142.684 140.986 142.681 141.688 142.678C146.733 142.733 146.733 142.733 149 145C146.36 145 143.72 145 141 145C140.67 145.99 140.34 146.98 140 148C139.01 147.67 138.02 147.34 137 147C137 146.67 137 146.34 137 146C135.02 146 133.04 146 131 146C129.631 150.517 130.529 153.588 132 158C129.274 155.645 128.012 153.459 127 150C127.159 147.293 127.673 146.331 129.578 144.402C132.889 142.485 135.911 142.599 139.625 142.688Z" fill="#FC4908"/>
<path d="M124 72C129.598 76.548 134.314 81.5233 139 87C140.65 85.68 142.3 84.36 144 83C145.32 83.66 146.64 84.32 148 85C147.34 85.66 146.68 86.32 146 87C145.01 87 144.02 87 143 87C141.98 87.9794 140.979 88.979 140 90C139.34 90 138.68 90 138 90C136.504 88.3214 135.077 86.5804 133.688 84.8125C131.299 81.7833 128.964 78.9647 126.207 76.2617C124 74 124 74 124 72Z" fill="#FC4E08"/>
<path d="M365 179C365.99 179.33 366.98 179.66 368 180C368 181.32 368 182.64 368 184C370.97 184 373.94 184 377 184C377 184.99 377 185.98 377 187C373.04 187 369.08 187 365 187C365 184.36 365 181.72 365 179Z" fill="#272A2C"/>
<path d="M171 63C168.353 64.4606 167.106 65 164 65C164 66.32 164 67.64 164 69C162.907 69.2887 161.814 69.5775 160.688 69.875C156.96 70.8189 156.96 70.8189 154 73C155.409 69.6351 156.997 67.9429 159.938 65.8125C160.627 65.3033 161.317 64.7941 162.027 64.2695C165.362 62.1237 167.302 61.8522 171 63Z" fill="#FC5809"/>
<path d="M133 159C136.954 162.715 140.148 166.731 143.352 171.109C144.95 173.265 144.95 173.265 148 174C149.188 177.562 149.188 177.562 150 181C146.406 177.489 143.043 173.851 139.812 170C139.375 169.492 138.937 168.984 138.486 168.461C135.965 165.459 134.227 162.729 133 159Z" fill="#FC4209"/>
<path d="M100.75 59.875C101.939 59.8885 101.939 59.8885 103.152 59.9023C105.102 59.9258 107.051 59.9617 109 60C109 60.33 109 60.66 109 61C100.585 61.495 100.585 61.495 92 62C92.33 63.65 92.66 65.3 93 67C92.34 66.34 91.68 65.68 91 65C88.3972 65.3204 88.3972 65.3204 86 66C86.8885 63.7787 87.5821 62.307 89.5312 60.875C93.2514 59.5565 96.8371 59.7906 100.75 59.875Z" fill="#FD5104"/>
<path d="M802 146C806.62 146 811.24 146 816 146C815.67 147.65 815.34 149.3 815 151C814.01 151.66 813.02 152.32 812 153C812.66 151.35 813.32 149.7 814 148C807.565 148.495 807.565 148.495 801 149C801.33 148.01 801.66 147.02 802 146Z" fill="#2C3133"/>
<path d="M143 113C143.33 113.66 143.66 114.32 144 115C145.65 114.34 147.3 113.68 149 113C148.021 114.146 147.042 115.292 146.062 116.438C145.517 117.076 144.972 117.714 144.41 118.371C142.157 120.974 142.157 120.974 139.75 121.375C135.894 120.849 134.499 118.856 132 116C132.33 115.34 132.66 114.68 133 114C133.743 114.846 134.485 115.691 135.25 116.562C136.611 117.769 136.611 117.769 138 119C140.275 118.955 140.275 118.955 142 118C142.33 116.35 142.66 114.7 143 113Z" fill="#FC4505"/>
<path d="M622 104C626.62 104 631.24 104 636 104C635.67 105.65 635.34 107.3 635 109C634.34 109 633.68 109 633 109C633 108.34 633 107.68 633 107C629.37 106.67 625.74 106.34 622 106C622 105.34 622 104.68 622 104Z" fill="#030507"/>
<path d="M113 94C114.65 94 116.3 94 118 94C118.248 94.9075 118.495 95.815 118.75 96.75C120.04 100.104 121.32 101.677 124 104C123.67 104.66 123.34 105.32 123 106C121.702 104.756 120.412 103.505 119.125 102.25C118.406 101.554 117.686 100.858 116.945 100.141C115.135 98.1488 114.052 96.4572 113 94Z" fill="#FC4C05"/>
<path d="M153 149C156.919 152.804 160.491 156.816 164 161C163.67 161.66 163.34 162.32 163 163C162.257 162.051 161.515 161.103 160.75 160.125C158.722 157.675 157.042 156.127 154 155C154 154.01 154 153.02 154 152C153.67 151.01 153.34 150.02 153 149Z" fill="#FD4909"/>
<path d="M404 104C408.95 104 413.9 104 419 104C418.67 104.99 418.34 105.98 418 107C413.38 106.34 408.76 105.68 404 105C404 104.67 404 104.34 404 104Z" fill="#000305"/>
<path d="M365 179C365.99 179.33 366.98 179.66 368 180C368 181.32 368 182.64 368 184C370.97 184 373.94 184 377 184C377 184.33 377 184.66 377 185C375.188 185.027 373.375 185.046 371.563 185.062C370.553 185.074 369.544 185.086 368.504 185.098C366 185 366 185 365 184C364.959 182.334 364.957 180.666 365 179Z" fill="#16242A"/>
<path d="M622 107C622.93 109.551 623.086 110.74 622.223 113.359C621.84 114.148 621.457 114.937 621.062 115.75C620.492 116.949 620.492 116.949 619.91 118.172C619.61 118.775 619.309 119.378 619 120C617.85 116.549 618.195 115.698 619.375 112.375C619.651 111.578 619.927 110.782 620.211 109.961C621 108 621 108 622 107Z" fill="#070C0E"/>
<path d="M125 105C125.99 105 126.98 105 128 105C128.697 106.287 129.382 107.579 130.062 108.875C130.637 109.954 130.637 109.954 131.223 111.055C131.479 111.697 131.736 112.339 132 113C131.67 113.66 131.34 114.32 131 115C127.517 111.981 126.208 109.431 125 105Z" fill="#FD5F12"/>
<path d="M377 117C380.815 119.462 380.815 119.462 381.75 122.188C381.833 122.786 381.915 123.384 382 124C381.01 124.33 380.02 124.66 379 125C377.743 122.094 377 120.204 377 117Z" fill="#152027"/>
<path d="M922 107C922 111.39 919.872 112.769 917 116C916.67 115.01 916.34 114.02 916 113C917.98 111.02 919.96 109.04 922 107Z" fill="#0F1518"/>
</svg>
