<svg width="260" height="260" viewBox="0 0 260 260" fill="none" xmlns="http://www.w3.org/2000/svg">
<path d="M12.6512 27.0753C12.7604 26.9409 12.8697 26.8067 13.3919 26.3458C14.2566 25.035 14.7084 24.0508 15.1601 23.0666C15.7433 22.6177 16.3264 22.1688 17.3408 21.3849C18.5722 20.0568 19.3723 19.0638 20.1724 18.0708C20.6141 17.7545 21.0558 17.4382 22.0829 17.0135C23.0248 16.4692 23.3814 16.0332 23.7673 15.6782C23.7967 15.7592 23.6284 15.7222 23.9218 15.6978C24.4473 15.3781 24.6793 15.0827 24.9274 14.8241C24.9434 14.8608 24.8835 14.8064 25.2567 14.876C28.0341 13.5819 30.4383 12.2182 33.2848 10.9111C44.3345 10.651 54.9414 10.0852 65.5495 10.061C110.152 9.95892 154.755 9.90485 199.357 10.11C208.92 10.154 218.478 11.351 228.181 12.3283C230.604 13.7232 232.884 14.8065 235.267 16.1543C235.731 16.4917 236.091 16.5648 236.451 16.6379C236.451 16.6379 236.302 16.7195 236.359 16.938C236.767 17.2114 237.119 17.2664 237.471 17.3213C237.471 17.3213 237.595 17.4332 237.553 17.7454C237.788 18.0785 238.065 18.0994 238.342 18.1203C238.342 18.1203 238.767 18.2689 238.676 18.6701C238.585 19.0714 238.936 19.4185 238.936 19.4185L239.311 19.0929C239.311 19.0929 239.716 19.2163 239.632 19.6326C240.053 20.3448 240.558 20.6406 241.064 20.9365C241.064 20.9365 241.459 21.0243 241.781 21.369C243.709 23.9054 245.317 26.0971 246.925 28.2888C247.085 28.8015 247.245 29.3142 247.701 30.2626C248.27 31.4859 248.545 32.2736 248.616 33.2452C248.752 33.8739 249.091 34.3185 249.427 34.7848C249.423 34.8064 249.455 34.7781 249.337 35.1736C249.454 37.4171 249.688 39.265 249.646 41.4083C249.254 43.1861 249.038 44.6686 249.037 46.1512C249.025 105.797 249.032 165.443 249.041 225.489C248.426 228.971 247.808 232.053 247.166 235.102C247.142 235.068 247.221 235.088 246.874 235.188C246.128 236.316 245.728 237.346 245.303 238.286C245.279 238.197 245.46 238.236 245.133 238.319C244.57 238.991 244.334 239.581 244.098 240.171C244.098 240.171 244.075 240.067 243.865 240.191C243.497 240.661 243.339 241.009 243.181 241.356C243.181 241.356 243.17 241.151 242.995 241.205C242.552 241.843 242.283 242.426 242.014 243.01C240.417 244.73 238.819 246.451 236.773 248.571C235.525 249.633 234.724 250.296 233.923 250.958C233.923 250.958 234.004 251.001 233.682 251.056C232.538 251.719 231.716 252.328 230.894 252.937C230.894 252.937 230.979 252.984 230.648 253.004C229.542 253.306 228.766 253.59 227.783 253.647C226.45 254.077 225.325 254.734 224.159 255.385C224.117 255.379 224.198 255.406 223.761 255.29C219.534 255.455 215.744 255.977 211.953 255.98C157.291 256.034 102.628 256.028 47.966 255.986C45.6685 255.984 43.314 255.735 41.0861 255.191C36.3153 254.026 31.61 252.593 26.912 251.24C26.9461 251.21 26.9049 251.289 26.8261 250.946C25.7722 250.114 24.797 249.627 23.8218 249.14C23.8218 249.14 23.9679 249.102 23.8204 248.885C23.2802 248.477 22.8875 248.286 22.4948 248.095C21.2687 247.119 20.0425 246.143 18.4767 244.845C17.9348 244.282 17.8775 244.01 17.8459 243.365C17.3732 242.716 17.0197 242.409 16.7103 242.125C16.7545 242.147 16.6835 242.217 16.7624 241.877C15.8309 240.389 14.8205 239.241 13.8102 238.093C13.8102 238.093 13.9357 238.086 13.9579 237.767C13.1642 236.406 12.3483 235.365 11.6023 234.283C11.6722 234.242 11.6487 234.402 11.7306 234.048C11.4004 233.215 10.9883 232.736 10.5702 232.233C10.5641 232.21 10.5259 232.241 10.6709 231.837C10.2402 226.606 9.66452 221.778 9.36952 216.655C9.77161 215.379 9.99893 214.4 9.99923 213.421C10.0165 157.711 10.0216 102.002 9.97614 46.2933C9.975 44.89 9.39572 43.4872 9.07153 41.6706C9.26994 38.7929 9.4829 36.3289 9.73123 33.8862C9.7666 33.9076 9.68634 33.8988 10.0171 33.7649C10.4449 32.9724 10.5421 32.3138 10.6659 31.7368C10.6926 31.8183 10.5292 31.7659 10.8975 31.6867C11.8071 30.2735 12.3485 28.9397 12.8087 27.4828C12.7277 27.3598 12.6512 27.0753 12.6512 27.0753ZM220.957 229.951C220.957 229.951 220.782 229.939 221.326 229.751C221.544 229.448 221.762 229.145 222.078 228.391C222.26 228.099 222.523 227.964 223.571 227.941C224.016 227.235 224.461 226.529 224.93 225.957C224.93 225.957 224.794 225.952 225.342 225.692C225.467 225.32 225.592 224.949 225.737 224.82C225.737 224.82 225.504 224.747 226.204 224.612C226.408 223.991 226.612 223.369 226.844 222.904C226.844 222.904 226.688 222.874 227.442 222.706C228.294 219.959 229.835 217.225 229.882 214.464C230.133 199.827 230.013 185.184 230.013 170.543C230.012 131.111 230.056 91.6799 229.891 52.2493C229.88 49.6691 228.254 47.0956 227.399 44.4103C227.399 44.4103 227.475 44.3293 227.761 43.6606C227.338 43.2083 226.915 42.756 226.713 42.21C226.713 42.21 226.716 42.4499 226.696 41.8568C226.431 41.5905 226.166 41.3242 225.294 40.7824C223.161 38.5514 221.028 36.3204 219.213 33.715C218.685 33.68 218.158 33.6451 217.734 33.114C217.704 33.2781 217.674 33.4422 217.555 32.8496C216.623 32.6335 215.691 32.4175 214.927 32.1621C214.927 32.1621 214.918 32.334 214.61 31.5999C212.91 31.0815 211.21 30.1126 209.509 30.1101C156.232 30.031 102.955 30.0221 49.6792 30.1488C47.8596 30.1532 46.0436 31.6639 44.1781 32.2951C44.1781 32.2951 44.3578 32.3336 43.6649 32.1844C43.136 32.5422 42.6072 32.9001 42.077 33.1108C42.077 33.1108 42.2213 33.1397 41.5371 33.1148C41.0747 33.5349 40.6123 33.9549 40.1321 34.1976C40.1321 34.1976 40.3056 34.2387 39.7959 34.1431C39.5667 34.454 39.3374 34.7649 38.8163 35.685C36.2822 39.2328 33.7482 42.7805 30.8411 45.9452C30.2392 46.97 29.6373 47.9948 28.4398 49.6076C28.3028 50.2512 28.0459 50.8947 28.0456 51.5383C28.0247 106.035 28.0199 160.532 28.0669 215.029C28.0674 215.666 28.7554 216.302 29.6087 217.404C30.2571 218.164 30.9055 218.924 31.4617 219.792C31.4617 219.792 31.4346 219.652 31.217 220.343C31.5837 220.872 31.9504 221.4 32.15 221.936C32.15 221.936 32.1859 221.773 32.1298 222.457C32.5102 222.955 32.8906 223.454 33.1216 223.954C33.1216 223.954 33.153 223.808 33.108 224.293C33.412 224.536 33.7161 224.779 34.584 225.386C37.8059 227.884 41.0278 230.382 43.8813 233.212C44.5935 233.801 45.3056 234.391 46.5998 235.586C47.5745 235.731 48.5491 236.002 49.5238 236.002C102.631 236.023 155.738 236.029 208.845 235.979C210.237 235.978 211.628 235.341 212.694 234.175C212.54 233.922 212.386 233.669 212.6 233.334C212.6 233.334 212.807 233.65 213.573 233.877C215.002 233.144 216.43 232.411 217.89 231.833C217.89 231.833 217.735 231.801 218.445 231.879C218.874 231.418 219.303 230.957 219.818 230.727C219.818 230.727 219.572 230.72 220.183 230.674C220.436 230.375 220.689 230.076 220.957 229.951Z" fill="#112332"/>
<path d="M220.022 257.082C216.428 258.057 212.837 259.855 209.239 259.869C190.129 259.947 171.016 259.375 151.905 259.407C117.982 259.464 84.0572 259.991 50.1358 259.812C44.4692 259.783 38.8161 257.182 33.4854 255.414C38.1961 255.742 42.5771 257.011 46.9608 257.021C104.648 257.145 162.335 257.091 220.022 257.082Z" fill="#FCFCFC"/>
<path d="M228.038 12.0168C218.478 11.351 208.92 10.1539 199.357 10.11C154.755 9.90482 110.152 9.95889 65.5496 10.0609C54.9415 10.0852 44.3346 10.651 33.2573 10.8737C32.7876 10.7797 32.7242 10.7119 32.7739 10.5253C32.8237 10.3387 33.0173 10.0044 33.0173 10.0044C34.1344 9.715 35.2516 9.4256 37.0421 9.04999C38.8181 8.62668 39.9206 8.28958 41.0232 7.95245C58.3804 7.98038 75.7375 8.00827 93.8879 8.02765C95.1272 7.97031 95.5733 7.92145 96.0194 7.87256C97.4121 7.92645 98.8048 7.98038 100.98 8.02499C102.515 7.96732 103.267 7.91894 104.019 7.87057C129.711 7.92386 155.403 7.97711 181.953 8.02274C183.881 7.9664 184.95 7.91769 186.019 7.86899C189.054 7.92255 192.089 7.9761 195.968 8.02252C197.881 7.96692 198.95 7.91846 200.019 7.87003C201.412 7.9238 202.804 7.97757 204.98 8.02258C206.515 7.96555 207.267 7.91724 208.019 7.86896C209.089 7.92154 210.16 7.97415 212.022 8.01706C213.882 7.96469 214.951 7.92197 216.019 7.87927C217.062 8.01364 218.105 8.14801 219.804 8.47998C221.979 9.05386 223.498 9.43012 225.017 9.80634C225.336 9.92316 225.656 10.04 226.403 10.4182C227.255 11.0955 227.68 11.5113 228.087 11.9487C228.069 11.9702 228.038 12.0168 228.038 12.0168Z" fill="#080D14"/>
<path d="M220.333 256.962C162.335 257.091 104.648 257.145 46.9608 257.021C42.5771 257.011 38.1961 255.742 33.4154 255.055C32.3419 254.667 31.6668 254.282 30.5531 253.64C29.7506 253.279 29.3868 253.175 29.023 253.072C29.023 253.072 28.8748 252.819 28.5686 252.591C27.8009 251.999 27.3394 251.634 26.8779 251.269C31.61 252.593 36.3153 254.026 41.0861 255.191C43.314 255.735 45.6686 255.984 47.966 255.986C102.628 256.028 157.291 256.034 211.953 255.98C215.744 255.977 219.534 255.455 223.562 255.502C223.189 256.185 222.579 256.539 221.968 256.894C221.527 256.876 221.086 256.859 220.333 256.962Z" fill="#030305"/>
<path d="M249.922 41.1129C249.688 39.265 249.454 37.417 249.556 35.461C250.317 37.4971 250.743 39.6413 251.066 42.2596C250.979 74.8143 250.98 106.895 251.012 138.975C251.04 167.059 251.105 195.143 251.169 223.615C250.817 226.009 250.448 228.015 250.08 230.022C249.7 230.745 249.32 231.468 248.68 232.659C248.011 233.796 247.6 234.465 247.19 235.135C247.808 232.053 248.427 228.971 249.335 225.183C249.753 223.664 249.994 222.85 249.994 222.036C249.982 161.728 249.952 101.42 249.922 41.1129Z" fill="#030305"/>
<path d="M9.089 216.951C9.6647 221.778 10.2404 226.606 10.4678 231.581C9.46883 230.137 8.81822 228.544 8.16761 226.953C8.1385 226.516 8.10938 226.08 8.02795 225.001C7.90386 223.7 7.83209 223.041 7.887 221.904C8.01824 188.317 8.04849 155.206 8.01934 122.095C7.99548 94.9832 7.90086 67.8713 7.84595 40.3888C8.4682 37.9671 9.08212 35.9159 9.69604 33.8647C9.48308 36.3288 9.27012 38.7929 9.05158 42.1314C9.06034 100.987 9.07467 158.969 9.089 216.951Z" fill="#030305"/>
<path d="M7.83746 40.7593C7.9007 67.8713 7.99532 94.9832 8.01918 122.095C8.04833 155.206 8.01808 188.317 7.67909 221.728C7.21081 221.693 7.07697 221.357 6.94312 221.021C6.96507 164.491 6.98595 107.961 7.01211 51.4305C7.01341 48.6041 7.06043 45.7776 7.16039 42.2591C7.43556 41.2979 7.63651 41.0286 7.83746 40.7593Z" fill="#2B3B49"/>
<path d="M251.153 223.227C251.105 195.143 251.04 167.059 251.012 138.975C250.98 106.895 250.979 74.8143 251.244 42.3327C251.524 41.9316 251.874 42.0898 251.874 42.0898C251.919 55.0926 251.963 68.0954 252.019 82.0252C252.074 89.9728 252.118 96.9933 252.163 104.014C252.11 107.382 252.058 110.75 252.014 114.942C252.069 116.515 252.117 117.264 252.165 118.014C252.113 118.769 252.062 119.525 252.019 121.023C252.073 122.515 252.12 123.264 252.166 124.014C252.115 128.045 252.065 132.077 252.022 137.03C252.075 143.638 252.121 149.326 252.167 155.013C252.115 155.768 252.062 156.524 252.018 158.097C252.073 161.614 252.12 164.314 252.168 167.014C252.116 167.463 252.065 167.912 252.021 169.151C252.074 173.965 252.12 177.989 252.167 182.013C252.115 184.062 252.062 186.11 252.018 189.041C252.071 192.953 252.116 195.983 252.161 199.013C252.108 202.382 252.056 205.751 252.012 209.996C252.068 212.586 252.115 214.299 252.163 216.013C252.036 218.031 251.909 220.05 251.641 222.575C251.499 223.082 251.153 223.227 251.153 223.227Z" fill="#1D303F"/>
<path d="M252.545 103.906C252.118 96.9932 252.074 89.9727 252.097 82.4883C252.606 82.229 253.435 82.4401 253.431 82.6373C253.312 89.692 253.115 96.7454 252.545 103.906Z" fill="#FCFCFC"/>
<path d="M252.542 154.911C252.121 149.325 252.075 143.638 252.1 137.488C252.618 137.22 253.461 137.423 253.457 137.608C253.328 143.343 253.116 149.076 252.542 154.911Z" fill="#FCFCFC"/>
<path d="M7.84594 40.3888C7.63666 41.0286 7.43571 41.2978 7.10695 41.7931C6.43008 41.7227 5.38045 41.2137 5.4032 41.1601C7.27565 36.7513 9.23153 32.3779 11.5761 27.9833C11.9709 27.9645 12.0095 28.01 11.9743 28.3478C11.4691 29.7123 10.9992 30.7391 10.5293 31.7658C10.5293 31.7658 10.6927 31.8182 10.4386 31.9517C10.0185 32.6897 9.85249 33.2942 9.68651 33.8988C9.68651 33.8988 9.76677 33.9076 9.7314 33.8861C9.0821 35.9159 8.46819 37.9671 7.84594 40.3888Z" fill="#FCFCFC"/>
<path d="M252.547 181.907C252.12 177.989 252.074 173.965 252.098 169.483C255.586 173.096 254.271 177.447 252.547 181.907Z" fill="#FCFCFC"/>
<path d="M252.139 41.9091C251.874 42.0898 251.524 41.9315 251.346 41.8585C250.743 39.6413 250.317 37.4971 249.674 35.0656C249.455 34.7781 249.423 34.8063 249.34 34.4957C249.111 33.8105 248.965 33.4358 248.819 33.0612C248.545 32.2735 248.27 31.4859 247.947 30.3792C252.205 32.8664 252.806 37.1036 252.139 41.9091Z" fill="#FCFCFC"/>
<path d="M7.89941 227.156C8.81803 228.544 9.46864 230.137 10.3225 231.985C10.5258 232.241 10.5641 232.21 10.6698 232.524C11.0665 233.359 11.3576 233.881 11.6487 234.402C11.6487 234.402 11.6722 234.242 11.7246 234.596C12.2229 235.962 12.6687 236.975 13.1146 237.988C11.2869 234.445 9.45914 230.902 7.89941 227.156Z" fill="#FCFCFC"/>
<path d="M252.536 198.912C252.116 195.983 252.071 192.953 252.096 189.474C255.582 192.046 254.306 195.424 252.536 198.912Z" fill="#FCFCFC"/>
<path d="M252.538 166.914C252.12 164.314 252.073 161.614 252.096 158.469C255.466 160.696 254.242 163.75 252.538 166.914Z" fill="#FCFCFC"/>
<path d="M222.144 257.148C222.579 256.539 223.19 256.185 223.999 255.618C224.198 255.406 224.117 255.378 224.492 255.3C225.908 254.772 226.949 254.323 227.99 253.874C228.766 253.59 229.542 253.306 230.631 252.958C229.561 257.247 225.644 256.757 222.144 257.148Z" fill="#FCFCFC"/>
<path d="M246.951 27.8811C245.317 26.0971 243.71 23.9054 241.981 21.3961C246.068 21.2088 246.812 24.11 246.951 27.8811Z" fill="#FCFCFC"/>
<path d="M251.169 223.615C251.153 223.227 251.499 223.082 251.671 223.008C253.161 225.536 253.873 228.044 250.41 229.984C250.448 228.015 250.817 226.009 251.169 223.615Z" fill="#FCFCFC"/>
<path d="M32.8152 10.817C30.4385 12.2181 28.0343 13.5818 25.4099 14.5945C26.2242 13.5338 27.2587 12.824 28.2932 12.1143C29.0365 11.8318 29.7797 11.5493 31.0608 11.1073C31.9738 10.8692 32.349 10.7906 32.7243 10.7119C32.7243 10.7119 32.7877 10.7797 32.8152 10.817Z" fill="#080D14"/>
<path d="M225.003 9.45054C223.498 9.43009 221.979 9.05384 220.199 8.46141C222.284 4.59001 223.697 6.48619 225.003 9.45054Z" fill="#FCFCFC"/>
<path d="M252.514 215.928C252.115 214.299 252.068 212.586 252.091 210.449C255.289 211.614 254.36 213.694 252.514 215.928Z" fill="#FCFCFC"/>
<path d="M40.9504 7.60987C39.9208 8.28959 38.8182 8.62669 37.3699 8.91908C37.2797 5.87165 38.3607 4.84831 40.9504 7.60987Z" fill="#FCFCFC"/>
<path d="M6.60095 221.093C7.07699 221.357 7.21083 221.693 7.55244 222.205C7.83196 223.041 7.90373 223.7 7.92298 224.688C4.87471 224.761 3.85009 223.681 6.60095 221.093Z" fill="#FCFCFC"/>
<path d="M235.164 15.8898C232.884 14.8065 230.604 13.7231 228.181 12.3283C228.038 12.0168 228.069 11.9702 228.406 11.9747C229.167 11.9437 229.592 11.9082 230.017 11.8727C230.017 11.8727 230.327 12.1292 230.689 12.4129C232.025 13.1794 233.001 13.6622 233.977 14.145C234.163 14.416 234.349 14.6869 234.856 15.173C235.178 15.3882 235.243 15.7813 235.221 15.8067C235.198 15.8321 235.164 15.8898 235.164 15.8898Z" fill="#080D14"/>
<path d="M27.8952 12.0898C27.2586 12.824 26.224 13.5338 25.0365 14.525C24.8835 14.8064 24.9435 14.8608 24.6637 14.9109C24.1322 15.2147 23.8803 15.4684 23.6285 15.7222C23.6285 15.7222 23.7967 15.7592 23.4924 15.7809C22.8293 15.9542 22.4706 16.1057 22.1118 16.2572C23.907 14.86 25.7022 13.4627 27.8952 12.0898Z" fill="#FCFCFC"/>
<path d="M215.949 7.54979C214.951 7.92195 213.882 7.96468 212.417 7.93681C213.307 7.65096 214.592 7.43562 215.949 7.54979Z" fill="#FCFCFC"/>
<path d="M199.947 7.5413C198.95 7.91846 197.881 7.96692 196.416 7.94233C197.305 7.6504 198.59 7.43146 199.947 7.5413Z" fill="#FCFCFC"/>
<path d="M185.947 7.54046C184.95 7.91769 183.881 7.96639 182.416 7.94183C183.305 7.64974 184.59 7.43087 185.947 7.54046Z" fill="#FCFCFC"/>
<path d="M19.8122 18.0901C19.3725 19.0638 18.5723 20.0567 17.4233 21.1151C17.8669 20.1567 18.6593 19.1331 19.8122 18.0901Z" fill="#FCFCFC"/>
<path d="M252.481 117.957C252.117 117.264 252.069 116.515 252.092 115.395C252.374 115.983 252.586 116.941 252.481 117.957Z" fill="#FCFCFC"/>
<path d="M252.482 123.957C252.119 123.264 252.073 122.515 252.098 121.395C252.378 121.983 252.588 122.942 252.482 123.957Z" fill="#FCFCFC"/>
<path d="M14.7959 23.1061C14.7084 24.0507 14.2566 25.0349 13.436 26.0898C13.5221 25.1556 13.9769 24.1507 14.7959 23.1061Z" fill="#FCFCFC"/>
<path d="M247.166 235.102C247.6 234.465 248.011 233.796 248.685 232.973C248.554 234.172 248.159 235.523 247.358 236.916C246.951 236.957 246.868 236.878 246.911 236.577C247.043 235.88 247.132 235.484 247.221 235.088C247.221 235.088 247.142 235.068 247.166 235.102Z" fill="#FCFCFC"/>
<path d="M207.96 7.55324C207.267 7.91719 206.515 7.9655 205.392 7.94136C205.981 7.65849 206.941 7.44805 207.96 7.55324Z" fill="#FCFCFC"/>
<path d="M103.96 7.55493C103.267 7.91894 102.515 7.96731 101.392 7.94305C101.981 7.66006 102.941 7.44964 103.96 7.55493Z" fill="#FCFCFC"/>
<path d="M13.9053 238.389C14.8206 239.241 15.831 240.389 16.5927 241.839C16.344 242.141 16.0116 242.038 16.0116 242.038C16.0116 242.038 16.0224 242.021 15.9786 241.754C15.6435 241.289 15.3523 241.091 15.0611 240.893C14.7075 240.157 14.3539 239.421 13.9053 238.389Z" fill="#030305"/>
<path d="M231.262 252.953C231.716 252.328 232.538 251.719 233.66 251.015C233.184 251.603 232.407 252.286 231.262 252.953Z" fill="#FCFCFC"/>
<path d="M16.0316 242.404C16.0117 242.038 16.3442 242.141 16.5139 242.179C16.6837 242.217 16.7547 242.147 16.8393 242.46C17.271 243.084 17.6181 243.396 17.9652 243.709C17.8777 244.01 17.935 244.282 18.1988 244.728C17.5241 244.213 16.7878 243.492 16.0316 242.404Z" fill="#FCFCFC"/>
<path d="M26.912 251.24C27.3394 251.634 27.8009 251.999 28.4253 252.622C27.4536 252.43 26.3189 251.979 25.4514 251.215C26.114 251.03 26.5095 251.16 26.9049 251.289C26.9049 251.289 26.9461 251.21 26.912 251.24Z" fill="#FCFCFC"/>
<path d="M234.301 250.969C234.724 250.296 235.525 249.633 236.624 248.855C236.175 249.486 235.427 250.233 234.301 250.969Z" fill="#FCFCFC"/>
<path d="M233.929 13.7724C233.001 13.6623 232.025 13.1795 230.89 12.4088C231.78 12.5471 232.83 12.9734 233.929 13.7724Z" fill="#FCFCFC"/>
<path d="M13.3175 238.031C12.6688 236.975 12.223 235.962 11.6548 234.637C12.3484 235.365 13.1642 236.406 13.946 237.828C13.912 238.21 13.5203 238.074 13.3175 238.031Z" fill="#030305"/>
<path d="M246.992 236.998C246.552 237.994 246.071 238.95 245.306 239.642C245.168 238.997 245.314 238.616 245.46 238.236C245.46 238.236 245.279 238.197 245.536 238.128C246.151 237.666 246.509 237.272 246.868 236.878C246.868 236.878 246.951 236.957 246.992 236.998Z" fill="#FCFCFC"/>
<path d="M229.924 11.5107C229.592 11.9083 229.167 11.9437 228.423 11.9532C227.68 11.5113 227.255 11.0955 226.659 10.4173C227.602 10.4861 228.717 10.8173 229.924 11.5107Z" fill="#FCFCFC"/>
<path d="M26.8261 250.945C26.5094 251.16 26.114 251.03 25.42 250.81C24.7632 250.353 24.405 249.987 23.9343 249.381C24.797 249.627 25.7722 250.114 26.8261 250.945Z" fill="#030305"/>
<path d="M32.774 10.5253C32.349 10.7906 31.9737 10.8692 31.3108 10.928C31.5766 10.4597 32.1301 10.0112 32.8505 9.78351C33.0174 10.0044 32.8238 10.3387 32.774 10.5253Z" fill="#FCFCFC"/>
<path d="M95.9746 7.59262C95.5734 7.92142 95.1273 7.97028 94.3504 7.94644C94.3383 7.39374 94.6568 6.9137 94.9754 6.43365C95.2935 6.72668 95.6115 7.01968 95.9746 7.59262Z" fill="#FCFCFC"/>
<path d="M242.261 242.855C242.283 242.426 242.552 241.843 243.095 241.228C243.082 241.698 242.795 242.199 242.261 242.855Z" fill="#030305"/>
<path d="M241.001 20.7144C240.559 20.6406 240.053 20.3448 239.72 19.8246C240.241 19.8977 240.59 20.1951 241.001 20.7144Z" fill="#080D14"/>
<path d="M22.1068 16.4459C22.4705 16.1057 22.8293 15.9542 23.463 15.7C23.3814 16.0332 23.0248 16.4691 22.3571 16.9565C22.0458 17.0079 22.1019 16.6346 22.1068 16.4459Z" fill="#080D14"/>
<path d="M245.133 238.318C245.314 238.616 245.168 238.997 244.952 239.674C244.882 239.971 244.481 240.035 244.29 240.103C244.335 239.581 244.571 238.991 245.133 238.318Z" fill="#030305"/>
<path d="M239.248 19.0228C239.311 19.0928 238.937 19.4184 238.937 19.4184C238.937 19.4184 238.585 19.0713 238.751 18.8817C238.918 18.6921 239.186 18.9528 239.248 19.0228Z" fill="#080D14"/>
<path d="M29.1946 253.29C29.3869 253.175 29.7507 253.279 30.2538 253.639C30.0508 253.767 29.7084 253.638 29.1946 253.29Z" fill="#FCFCFC"/>
<path d="M238.262 18.0005C238.065 18.0993 237.788 18.0784 237.613 17.8033C237.899 17.6212 238.054 17.7318 238.262 18.0005Z" fill="#080D14"/>
<path d="M243.438 241.226C243.339 241.009 243.497 240.661 243.918 240.189C244.019 240.408 243.857 240.752 243.438 241.226Z" fill="#030305"/>
<path d="M15.1562 241.128C15.3524 241.091 15.6436 241.289 15.9695 241.756C15.7532 241.804 15.5022 241.584 15.1562 241.128Z" fill="#FCFCFC"/>
<path d="M237.313 17.1501C237.119 17.2664 236.767 17.2114 236.375 16.8546C236.649 16.6167 236.923 16.7588 237.313 17.1501Z" fill="#080D14"/>
<path d="M236.355 16.4313C236.091 16.5648 235.731 16.4917 235.267 16.1542C235.163 15.8899 235.198 15.8321 235.423 15.8228C235.649 15.8134 236.056 15.8164 236.056 15.8164C236.056 15.8164 236.259 16.2248 236.355 16.4313Z" fill="#080D14"/>
<path d="M235.913 15.6533C236.056 15.8164 235.649 15.8135 235.446 15.7974C235.243 15.7814 235.178 15.3882 235.113 15.1999C235.315 15.1314 235.555 15.2909 235.913 15.6533Z" fill="#FCFCFC"/>
<path d="M22.6753 248.363C22.8875 248.286 23.2802 248.476 23.8256 248.96C23.6041 249.046 23.2299 248.839 22.6753 248.363Z" fill="#030305"/>
<path d="M12.5163 27.2015C12.6513 27.0753 12.7279 27.3598 12.5838 27.5725C12.4398 27.7852 12.0096 28.0101 12.0096 28.0101C12.0096 28.0101 11.9709 27.9646 11.9536 27.9406C12.0648 27.7054 12.2132 27.5091 12.5163 27.2015Z" fill="#FCFCFC"/>
<path d="M31.2142 46.3283C33.7482 42.7805 36.2823 39.2328 39.2145 35.3205C39.8437 34.7169 40.0747 34.4778 40.3056 34.2387C40.3056 34.2387 40.1322 34.1976 40.4427 34.1895C41.2426 33.8343 41.7319 33.487 42.2213 33.1397C42.2213 33.1397 42.077 33.1108 42.388 33.1077C43.2519 32.8476 43.8049 32.5906 44.3579 32.3336C44.3579 32.3336 44.1782 32.2951 44.6075 32.2636C48.8366 31.9348 52.636 31.3832 56.4361 31.3784C104.967 31.316 153.499 31.3067 202.03 31.3718C206.326 31.3776 210.622 31.9986 214.919 32.334C214.919 32.334 214.927 32.1621 215.046 32.4422C215.992 33.017 216.818 33.3116 217.644 33.6063C217.674 33.4422 217.704 33.2781 217.864 33.5041C218.287 33.9916 218.588 34.0567 218.895 34.0895C221.028 36.3204 223.161 38.5514 225.669 41.1927C226.268 41.8853 226.492 42.1676 226.716 42.4499C226.716 42.4499 226.713 42.21 226.714 42.5221C226.968 43.3325 227.221 43.8309 227.475 44.3293C227.475 44.3293 227.399 44.4103 227.564 44.8297C228.085 49.0401 228.746 52.8306 228.751 56.622C228.827 107.658 228.863 158.694 228.725 209.729C228.714 214.113 227.398 218.493 226.688 222.874C226.688 222.874 226.844 222.904 226.569 222.988C226.031 223.63 225.768 224.189 225.505 224.747C225.505 224.747 225.737 224.82 225.486 224.857C225.088 225.247 224.941 225.599 224.794 225.952C224.794 225.952 224.931 225.957 224.645 226.024C223.861 226.723 223.364 227.354 222.866 227.986C222.523 227.964 222.26 228.099 221.77 228.729C221.235 229.359 221.009 229.649 220.782 229.939C220.782 229.939 220.957 229.951 220.677 229.96C220.122 230.219 219.847 230.469 219.572 230.72C219.572 230.72 219.818 230.727 219.494 230.736C218.691 231.097 218.213 231.449 217.735 231.801C217.735 231.801 217.89 231.833 217.536 231.855C215.724 232.468 214.265 233.059 212.807 233.65C212.807 233.65 212.6 233.334 212.015 233.465C209.27 233.678 207.11 233.831 204.951 233.832C156.016 233.844 107.082 233.866 58.1477 233.797C53.5146 233.791 48.8823 233.199 44.2497 232.879C41.0278 230.382 37.8059 227.884 34.2604 224.94C33.6756 224.265 33.4143 224.037 33.1531 223.808C33.1531 223.808 33.1216 223.954 33.1148 223.644C32.8007 222.813 32.4933 222.293 32.186 221.773C32.186 221.773 32.1501 221.936 32.1559 221.629C31.9194 220.765 31.677 220.209 31.4347 219.652C31.4347 219.652 31.4617 219.792 31.4044 219.348C31.1711 217.294 30.9951 215.685 30.9095 213.61C30.9918 194.181 31.001 175.217 30.9719 156.253C30.9181 121.158 30.842 86.0636 30.8497 50.5868C31.0209 48.9126 31.1176 47.6205 31.2142 46.3283ZM179.697 134.092C179.906 133.784 180.115 133.476 180.15 133.145C180.15 133.145 180.177 133.319 180.703 133.097C180.909 132.787 181.115 132.476 181.145 132.142C181.145 132.142 181.172 132.318 181.697 132.096C181.91 131.789 182.123 131.483 182.159 131.15C182.159 131.15 182.188 131.326 182.711 131.105C182.917 130.795 183.123 130.484 183.155 130.149C183.155 130.149 183.183 130.322 183.705 130.099C183.913 129.791 184.121 129.482 184.154 129.149C184.154 129.149 184.182 129.323 184.708 129.107C184.924 128.804 185.141 128.502 185.154 128.159C185.154 128.159 185.167 128.366 185.758 128.102C186.022 127.764 186.286 127.427 187.124 126.833C192.943 121.127 198.923 115.574 204.521 109.658C207.93 106.055 210.442 101.811 208.377 96.4242C205.827 89.7724 199.862 87.4567 191.581 89.7423C191.274 89.9163 190.966 90.0903 190.474 90.3636C190.474 90.3636 190.334 90.5197 189.986 90.7463C189.723 90.8884 189.576 91.1081 189.4 91.4733C189.4 91.4733 189.26 91.5536 188.95 91.7495C188.74 91.8939 188.603 92.0894 188.388 92.4371C188.388 92.4371 188.251 92.5579 187.939 92.7621C187.719 92.905 187.586 93.1057 187.374 93.4091C187.374 93.4091 187.217 93.4789 186.831 93.8202C186.507 94.2054 186.183 94.5906 185.25 95.2008C183.495 97.0888 181.739 98.9768 179.515 101.084C179.17 101.466 178.824 101.847 178.336 102.362C178.336 102.362 178.202 102.504 177.828 102.836C177.52 103.21 177.212 103.585 176.985 103.983C176.985 103.983 176.96 103.903 176.492 104.093C176.157 104.468 175.822 104.843 175.339 105.375C175.339 105.375 175.236 105.565 174.939 105.761C174.735 105.901 174.603 106.092 174.359 106.395C174.359 106.395 174.195 106.502 173.822 106.834C173.514 107.209 173.206 107.584 172.977 107.98C172.977 107.98 172.96 107.899 172.485 108.083C172.151 108.463 171.816 108.843 171.349 109.379C171.349 109.379 171.251 109.558 170.942 109.756C170.73 109.899 170.596 110.096 170.384 110.442C170.384 110.442 170.244 110.562 169.94 110.757C169.73 110.898 169.6 111.092 169.372 111.433C169.372 111.433 169.227 111.572 168.932 111.761C168.733 111.902 168.606 112.091 168.374 112.427C168.374 112.427 168.231 112.569 167.933 112.759C167.733 112.901 167.603 113.091 167.369 113.394C167.369 113.394 167.209 113.49 166.828 113.832C166.505 114.215 166.182 114.598 165.241 115.207C162.819 117.748 160.397 120.29 157.466 123.065C157.261 123.37 157.055 123.675 156.984 123.986C156.984 123.986 156.976 123.852 156.459 124.071C156.25 124.374 156.042 124.677 155.221 125.223C150.14 130.43 145.059 135.638 139.462 141.083C139.113 141.528 138.765 141.974 138.387 142.654C138.387 142.654 138.347 142.422 137.942 142.646C137.694 142.919 137.41 142.964 137.071 142.945C137.071 142.945 137.236 142.939 137.018 142.41C136.715 142.189 136.413 141.969 136.099 141.935C136.099 141.935 136.285 141.914 136.068 141.371C135.763 141.144 135.457 140.917 135.1 140.928C135.1 140.928 135.344 140.946 135.096 140.295C134.748 139.996 134.401 139.697 133.881 138.8C128.268 132.85 122.655 126.899 117.023 120.822C117.023 120.822 116.917 120.749 116.787 120.334C116.787 120.334 116.384 120.172 116.239 119.934C116.119 119.788 115.974 119.674 115.666 119.33C115.666 119.33 115.399 119.2 115.27 118.976C115.158 118.843 115.028 118.731 114.765 118.344C114.765 118.344 114.496 118.176 114.179 117.792C113.807 117.481 113.435 117.17 112.965 116.408C112.792 116.114 112.535 115.968 111.926 115.403C110.905 114.749 109.884 114.095 108.47 113.275C108.47 113.275 108.152 113.562 107.727 113.058C104.431 113.673 101.135 114.288 97.9431 114.928C97.9431 114.928 97.9357 114.821 97.4066 115.008C97.1898 115.302 96.973 115.596 96.9094 115.912C96.9094 115.912 96.887 115.759 96.3702 115.979C96.1647 116.284 95.9592 116.589 95.8811 116.914C95.8811 116.914 95.8518 116.788 95.2205 117.188C92.6576 121.05 91.7244 125.022 94.3195 129.563C94.3195 129.563 94.5165 129.832 94.8204 130.23C95.1663 130.569 95.5121 130.907 95.8875 131.124C95.8875 131.124 95.764 131.142 95.9759 131.665C96.2738 131.88 96.5716 132.096 96.8937 132.148C96.8937 132.148 96.7308 132.175 96.9478 132.698C97.249 132.913 97.5501 133.127 97.8727 133.191C97.8727 133.191 97.727 133.234 97.9376 133.778C98.4607 134.347 98.9837 134.915 99.5732 135.473C99.5732 135.473 99.525 135.466 99.7795 135.904C100.041 136.114 100.302 136.324 100.6 136.279C100.6 136.279 100.491 136.512 100.794 136.97C101.201 137.313 101.609 137.657 102.196 138.664C108.173 144.796 114.149 150.927 120.02 157.607C120.302 157.837 120.584 158.067 120.893 158.167C120.893 158.167 120.763 158.194 120.96 158.76C121.522 159.315 122.085 159.871 122.726 160.301C122.726 160.301 122.582 160.335 122.809 160.833C123.092 161.055 123.376 161.278 123.702 161.325C123.702 161.325 123.541 161.406 123.761 161.864C124.011 162.089 124.261 162.315 124.912 162.563C124.912 162.563 124.51 162.572 124.734 162.94C124.906 163.174 125.116 163.368 125.466 163.575C125.466 163.575 125.485 163.689 125.808 164.116C126.201 164.46 126.594 164.803 127.192 165.737C128.402 166.849 129.612 167.961 131.178 169.719C135.668 172.432 140.03 172.568 144.648 169.003C144.952 168.863 145.101 168.625 145.612 168.038C145.824 167.725 146.036 167.413 146.099 167.09C146.099 167.09 146.118 167.238 146.631 167.022C146.833 166.718 147.034 166.414 147.1 166.095C147.1 166.095 147.116 166.231 147.629 166.015C147.832 165.713 148.035 165.41 148.098 165.093C148.098 165.093 148.114 165.234 148.627 165.016C148.824 164.709 149.021 164.401 149.086 164.082C149.086 164.082 149.1 164.213 149.613 164.001C149.813 163.697 150.013 163.394 150.08 163.079C150.08 163.079 150.094 163.211 150.61 163C150.819 162.702 151.027 162.404 151.096 162.091C151.096 162.091 151.11 162.231 151.627 162.019C151.831 161.716 152.036 161.412 152.098 161.094C152.098 161.094 152.115 161.235 152.63 161.02C152.834 160.716 153.037 160.413 153.099 160.094C153.099 160.094 153.115 160.236 153.63 160.021C153.834 159.717 154.037 159.413 154.099 159.094C154.099 159.094 154.115 159.236 154.629 159.019C154.828 158.713 155.028 158.406 155.091 158.087C155.091 158.087 155.106 158.223 155.62 158.009C155.822 157.706 156.025 157.404 156.092 157.087C156.092 157.087 156.107 157.223 156.621 157.009C156.824 156.706 157.026 156.403 157.091 156.087C157.091 156.087 157.106 156.224 157.622 156.012C157.824 155.708 158.027 155.404 158.091 155.087C158.091 155.087 158.106 155.225 158.624 155.015C158.83 154.713 159.036 154.412 159.1 154.096C159.1 154.096 159.117 154.238 159.632 154.022C159.831 153.715 160.031 153.409 160.093 153.089C160.093 153.089 160.108 153.226 160.623 153.013C160.826 152.71 161.028 152.406 161.093 152.089C161.093 152.089 161.108 152.226 161.623 152.013C161.826 151.71 162.028 151.406 162.093 151.089C162.093 151.089 162.108 151.226 162.623 151.014C162.827 150.712 163.031 150.41 163.097 150.093C163.097 150.093 163.112 150.232 163.632 150.022C163.847 149.728 164.062 149.433 164.123 149.119C164.123 149.119 164.144 149.273 164.656 149.045C164.849 148.731 165.042 148.417 165.095 148.09C165.095 148.09 165.111 148.23 165.625 148.016C165.826 147.711 166.027 147.406 166.092 147.089C166.092 147.089 166.107 147.224 166.62 147.008C166.824 146.706 167.027 146.403 167.094 146.087C167.094 146.087 167.108 146.224 167.627 146.016C167.834 145.716 168.041 145.415 168.102 145.099C168.102 145.099 168.119 145.245 168.641 145.034C168.855 144.736 169.069 144.438 169.125 144.121C169.125 144.121 169.146 144.278 169.667 144.06C169.873 143.753 170.078 143.446 170.124 143.119C170.124 143.119 170.146 143.279 170.668 143.061C170.875 142.755 171.082 142.448 171.127 142.122C171.127 142.122 171.149 142.284 171.671 142.065C171.877 141.757 172.083 141.449 172.126 141.121C172.126 141.121 172.148 141.284 172.671 141.065C172.877 140.757 173.083 140.448 173.125 140.12C173.125 140.12 173.147 140.283 173.67 140.065C173.877 139.757 174.083 139.449 174.126 139.121C174.126 139.121 174.148 139.284 174.671 139.065C174.877 138.758 175.084 138.45 175.127 138.122C175.127 138.122 175.15 138.285 175.672 138.067C175.88 137.76 176.087 137.452 176.129 137.124C176.129 137.124 176.152 137.288 176.675 137.07C176.882 136.762 177.09 136.455 177.131 136.126C177.131 136.126 177.154 136.292 177.68 136.076C177.892 135.771 178.103 135.466 178.143 135.138C178.143 135.138 178.169 135.31 178.694 135.09C178.902 134.781 179.11 134.473 179.146 134.14C179.146 134.14 179.172 134.312 179.697 134.092ZM65.9755 200.659C66.301 200.861 66.6265 201.063 66.9517 201.115C66.9517 201.115 66.8051 201.148 67.1113 201.717C68.171 202.371 69.2308 203.025 70.7407 203.699C70.7407 203.699 70.8685 203.267 71.2555 203.975C73.1703 204.352 75.0845 205.054 77.0001 205.058C112.363 205.13 147.727 205.191 183.089 204.996C186.151 204.979 189.203 203.163 192.146 202.158C192.146 202.158 192.175 202.271 192.62 202.105C192.62 202.105 192.951 201.763 193.514 201.579C194.274 200.709 195.033 199.839 196.127 198.626C196.127 198.626 196.291 198.175 196.167 198.145C196.167 198.145 196.192 198.27 196.732 197.944C196.971 197.359 197.211 196.774 197.261 196.141C197.261 196.141 197.285 196.336 197.872 195.788C198.28 193.375 199.019 190.966 199.041 188.55C199.158 175.345 199.125 162.139 199.061 148.934C199.055 147.575 198.505 146.219 198.516 144.858C198.516 144.858 198.568 144.553 198.271 144.044C197.723 143.511 197.174 142.978 196.289 142.442C196.289 142.442 196.203 142.767 195.813 142.095C193.486 142.699 191.158 143.303 188.977 143.946C188.977 143.946 188.992 143.797 188.339 144.035C188.017 144.352 187.695 144.67 186.841 145.039C186.317 145.716 185.792 146.393 184.977 147.464C184.977 147.464 184.839 147.934 184.943 147.94C184.943 147.94 184.919 147.839 184.444 148.099C184.308 148.423 184.172 148.746 183.392 149.621C183.284 161.144 183.252 172.669 182.986 184.188C182.946 185.919 181.813 187.625 180.23 189.378C158.283 189.399 136.336 189.464 114.389 189.423C102.26 189.4 90.1316 189.2 77.7897 188.636C77.5875 188.368 77.3348 188.163 77.0033 187.082C77.0014 162.022 76.9755 136.962 77.0083 111.901C77.0231 100.624 77.1551 89.3457 77.645 78.0359C77.9569 77.9545 78.1162 77.7527 79.0406 77.3308C113.628 77.3104 148.215 77.3277 182.802 77.2043C185.85 77.1935 188.895 76.2626 192.61 75.5819C195.442 73.0804 196.969 70.1952 195.354 66.3648C193.598 62.2015 190.122 61.2219 186.044 61.2199C148.651 61.2018 111.258 61.1523 73.8644 61.1495C68.6787 61.1491 64.5266 63.0719 61.9476 68.8608C61.6275 70.6362 61.0303 72.4113 61.0283 74.1871C60.9857 112.301 60.9528 150.415 61.1333 188.528C61.1472 191.461 62.756 194.386 63.4489 197.353C63.4489 197.353 63.4296 197.53 63.7453 198.01C64.1387 198.402 64.5321 198.795 64.9465 199.072C64.9465 199.072 64.8296 199.076 65.044 199.607C65.3347 199.839 65.6254 200.071 65.9312 200.108C65.9312 200.108 65.7363 200.128 65.9755 200.659Z" fill="#F5F3F0"/>
<path d="M227.065 222.79C227.398 218.492 228.714 214.113 228.725 209.729C228.863 158.694 228.827 107.658 228.752 56.622C228.746 52.8305 228.085 49.0401 227.554 44.8841C228.254 47.0956 229.881 49.669 229.891 52.2492C230.057 91.6799 230.012 131.111 230.013 170.543C230.013 185.184 230.133 199.827 229.882 214.464C229.835 217.224 228.294 219.959 227.065 222.79Z" fill="#030305"/>
<path d="M249.646 41.4083C249.952 101.421 249.982 161.728 249.994 222.036C249.994 222.85 249.753 223.664 249.33 224.784C249.032 165.443 249.025 105.797 249.038 46.1512C249.038 44.6686 249.254 43.1861 249.646 41.4083Z" fill="#1D303F"/>
<path d="M31.0277 46.1367C31.1175 47.6204 31.0209 48.9126 30.5883 50.9146C30.1629 52.4467 29.9953 53.269 29.9953 54.0914C29.9916 105.987 29.9952 157.884 30.0443 209.78C30.0456 211.212 30.5496 212.644 30.8191 214.076C30.9951 215.685 31.1711 217.294 31.4506 219.293C30.9056 218.924 30.2572 218.164 29.3366 216.711C29.0548 160.352 29.0451 104.686 29.0354 49.0195C29.6373 47.9947 30.2392 46.9699 31.0277 46.1367Z" fill="#030305"/>
<path d="M214.764 31.9669C210.622 31.9986 206.326 31.3775 202.03 31.3718C153.499 31.3066 104.967 31.316 56.4361 31.3783C52.6359 31.3832 48.8365 31.9347 44.6313 32.3523C46.0436 31.6639 47.8596 30.1531 49.6791 30.1488C102.955 30.022 156.232 30.031 209.509 30.11C211.21 30.1126 212.91 31.0814 214.764 31.9669Z" fill="#030305"/>
<path d="M9.36964 216.655C9.07461 158.969 9.06028 100.987 9.06607 42.545C9.39584 43.4872 9.97511 44.89 9.97626 46.2933C10.0217 102.002 10.0166 157.711 9.99934 213.421C9.99905 214.4 9.77173 215.379 9.36964 216.655Z" fill="#1D303F"/>
<path d="M44.0657 233.045C48.8825 233.199 53.5147 233.791 58.1478 233.797C107.082 233.866 156.016 233.844 204.951 233.832C207.11 233.831 209.27 233.678 211.831 233.506C212.386 233.669 212.54 233.922 212.388 234.592C156.727 235 101.373 234.991 46.0179 234.981C45.3058 234.391 44.5937 233.801 44.0657 233.045Z" fill="#030305"/>
<path d="M28.7377 49.3135C29.0452 104.686 29.0549 160.352 29.0936 216.479C28.7555 216.302 28.0675 215.666 28.067 215.029C28.02 160.532 28.0248 106.035 28.0457 51.5383C28.046 50.8947 28.3028 50.2511 28.7377 49.3135Z" fill="#1D303F"/>
<path d="M46.3088 235.284C101.373 234.991 156.727 235 212.551 235.005C211.628 235.341 210.237 235.978 208.845 235.979C155.738 236.029 102.631 236.023 49.5238 236.002C48.5491 236.002 47.5745 235.731 46.3088 235.284Z" fill="#1D303F"/>
<path d="M213.19 233.764C214.265 233.059 215.724 232.468 217.521 231.777C216.43 232.411 215.002 233.144 213.19 233.764Z" fill="#030305"/>
<path d="M227.783 253.647C226.949 254.323 225.908 254.772 224.534 255.306C225.325 254.734 226.45 254.077 227.783 253.647Z" fill="#030305"/>
<path d="M11.9741 28.3478C12.0094 28.01 12.4396 27.7851 12.6647 27.6954C12.3484 28.9396 11.8071 30.2735 10.8975 31.6866C10.9991 30.7391 11.469 29.7123 11.9741 28.3478Z" fill="#030305"/>
<path d="M246.911 236.577C246.509 237.272 246.151 237.666 245.56 238.217C245.728 237.346 246.128 236.316 246.875 235.188C247.132 235.484 247.043 235.88 246.911 236.577Z" fill="#030305"/>
<path d="M217.6 33.2279C216.818 33.3116 215.992 33.017 214.963 32.4618C215.691 32.4174 216.623 32.6335 217.6 33.2279Z" fill="#030305"/>
<path d="M223.218 227.963C223.363 227.354 223.861 226.722 224.632 225.957C224.461 226.529 224.016 227.235 223.218 227.963Z" fill="#030305"/>
<path d="M31.3259 219.998C31.6771 220.209 31.9195 220.765 32.2396 221.625C31.9505 221.4 31.5838 220.872 31.3259 219.998Z" fill="#030305"/>
<path d="M32.158 222.115C32.4934 222.293 32.8007 222.813 33.1896 223.642C32.8907 223.454 32.5103 222.955 32.158 222.115Z" fill="#030305"/>
<path d="M225.854 224.679C225.768 224.189 226.031 223.63 226.555 222.91C226.612 223.369 226.408 223.991 225.854 224.679Z" fill="#030305"/>
<path d="M33.1306 224.051C33.4144 224.037 33.6756 224.265 33.9785 224.758C33.7161 224.779 33.4121 224.536 33.1306 224.051Z" fill="#030305"/>
<path d="M218.09 231.84C218.213 231.449 218.691 231.097 219.451 230.62C219.304 230.957 218.874 231.418 218.09 231.84Z" fill="#030305"/>
<path d="M11.7308 234.048C11.3578 233.881 11.0667 233.359 10.676 232.547C10.9885 232.736 11.4006 233.215 11.7308 234.048Z" fill="#030305"/>
<path d="M219.054 33.9022C218.588 34.0566 218.287 33.9915 217.812 33.7521C218.158 33.645 218.685 33.68 219.054 33.9022Z" fill="#030305"/>
<path d="M44.0114 32.259C43.8049 32.5906 43.2519 32.8476 42.3887 33.1813C42.6072 32.9001 43.1361 32.5422 44.0114 32.259Z" fill="#030305"/>
<path d="M41.8793 33.1273C41.732 33.487 41.2426 33.8342 40.4517 34.2782C40.6125 33.9549 41.0749 33.5349 41.8793 33.1273Z" fill="#030305"/>
<path d="M227.618 43.9949C227.221 43.8309 226.968 43.3325 226.604 42.5689C226.915 42.756 227.338 43.2083 227.618 43.9949Z" fill="#030305"/>
<path d="M248.616 33.2452C248.965 33.4358 249.111 33.8104 249.344 34.4741C249.091 34.3185 248.752 33.8738 248.616 33.2452Z" fill="#030305"/>
<path d="M40.0507 34.1909C40.0746 34.4778 39.8436 34.7169 39.3605 35.0158C39.3375 34.7648 39.5667 34.4539 40.0507 34.1909Z" fill="#030305"/>
<path d="M10.0171 33.7649C9.85236 33.2942 10.0183 32.6897 10.4118 31.8702C10.5421 32.3138 10.445 32.9724 10.0171 33.7649Z" fill="#030305"/>
<path d="M225.068 225.822C224.941 225.599 225.088 225.247 225.476 224.736C225.592 224.949 225.467 225.32 225.068 225.822Z" fill="#030305"/>
<path d="M221.054 229.845C221.009 229.649 221.235 229.359 221.721 228.955C221.762 229.145 221.544 229.448 221.054 229.845Z" fill="#030305"/>
<path d="M219.878 230.697C219.847 230.469 220.122 230.219 220.67 229.873C220.69 230.076 220.436 230.375 219.878 230.697Z" fill="#030305"/>
<path d="M23.9219 15.6978C23.8804 15.4684 24.1322 15.2147 24.6478 14.8741C24.6794 15.0826 24.4473 15.378 23.9219 15.6978Z" fill="#080D14"/>
<path d="M17.8459 243.365C17.6179 243.396 17.2708 243.084 16.7949 242.437C17.0197 242.409 17.3732 242.716 17.8459 243.365Z" fill="#030305"/>
<path d="M226.706 42.1533C226.492 42.1676 226.268 41.8853 225.972 41.3304C226.166 41.3241 226.431 41.5905 226.706 42.1533Z" fill="#030305"/>
<path d="M195.793 198.97C195.033 199.839 194.274 200.709 193.09 201.556C192.502 201.779 192.339 202.025 192.175 202.271C192.175 202.271 192.146 202.158 191.787 202.113C188.529 202.719 185.626 203.942 182.728 203.933C145.441 203.813 108.155 203.518 70.8686 203.267C70.8686 203.267 70.7408 203.699 70.6273 203.339C69.2777 202.369 68.0414 201.759 66.8052 201.148C66.8052 201.148 66.9518 201.115 66.8447 200.912C66.4038 200.516 66.0701 200.322 65.7364 200.128C65.7364 200.128 65.9313 200.108 65.8402 199.924C65.4426 199.518 65.1362 199.297 64.8297 199.076C64.8297 199.076 64.9466 199.072 64.9455 198.78C64.4395 198.169 63.9346 197.849 63.4297 197.53C63.4297 197.53 63.449 197.353 63.6339 196.927C63.2235 192.75 62.1248 189 62.1111 185.246C61.9787 149.086 62.0229 112.926 62.0386 76.766C62.0399 73.8745 62.2046 70.9829 62.2934 68.0914C64.5267 63.0718 68.6788 61.1491 73.8645 61.1495C111.258 61.1523 148.651 61.2018 186.044 61.2199C190.122 61.2219 193.598 62.2015 195.354 66.3648C196.969 70.1951 195.442 73.0804 191.993 75.438C188.108 75.5389 184.842 75.991 181.574 75.9963C148.879 76.0492 116.184 76.0066 83.4885 76.0885C81.6988 76.093 79.9114 76.9631 78.1229 77.4303C78.1163 77.7526 77.957 77.9545 77.0563 78.1852C75.9989 79.8459 75.1248 81.3565 75.1213 82.8691C75.0434 116.364 75.0353 149.859 75.1454 183.354C75.1505 184.911 76.375 186.465 77.0316 188.02C77.3349 188.163 77.5876 188.368 77.9085 189.178C78.0253 190.146 78.0235 190.573 78.3155 191.297C79.4174 191.735 80.2254 191.996 81.0336 191.997C113.123 192.019 145.213 192.028 177.303 191.979C178.54 191.977 179.775 191.384 181.049 190.635C181.12 189.916 181.153 189.629 181.186 189.342C181.813 187.625 182.946 185.919 182.986 184.188C183.252 172.669 183.284 161.144 183.736 149.81C184.079 161.912 184.079 173.823 184.079 185.735C184.359 185.732 184.639 185.729 184.919 185.725C184.919 173.097 184.919 160.468 184.919 147.839C184.919 147.839 184.943 147.94 185.073 147.897C185.315 147.805 185.528 147.724 185.525 147.713C185.454 147.494 185.358 147.283 185.268 147.07C185.792 146.393 186.317 145.716 187.44 144.898C188.357 144.437 188.674 144.117 188.992 143.797C188.992 143.797 188.977 143.946 189.32 143.968C191.843 143.582 194.023 143.175 196.203 142.767C196.203 142.767 196.289 142.442 196.366 142.8C197.152 143.623 197.86 144.088 198.568 144.553C198.568 144.553 198.516 144.858 198.299 145.333C197.816 162.651 197.551 179.493 197.285 196.336C197.285 196.336 197.261 196.141 197.016 196.264C196.578 197.014 196.385 197.642 196.192 198.27C196.192 198.27 196.167 198.145 196.039 198.181C195.792 198.25 195.673 198.283 195.553 198.316C195.633 198.534 195.713 198.752 195.793 198.97Z" fill="#132534"/>
<path d="M112.194 115.971C112.535 115.968 112.792 116.114 113.03 116.963C113.563 117.738 114.029 117.957 114.496 118.176C114.496 118.176 114.765 118.344 114.665 118.712C114.843 119.121 115.121 119.161 115.4 119.2C115.4 119.2 115.666 119.33 115.602 119.702C115.82 120.106 116.102 120.139 116.384 120.172C116.384 120.172 116.788 120.334 116.69 120.643C116.742 120.951 116.892 120.949 117.043 120.948C122.655 126.899 128.268 132.85 134.092 139.43C134.651 140.356 134.997 140.651 135.344 140.946C135.344 140.946 135.1 140.928 135.21 141.097C135.642 141.483 135.963 141.698 136.285 141.914C136.285 141.914 136.099 141.935 136.206 142.113C136.621 142.507 136.929 142.723 137.236 142.939C137.236 142.939 137.071 142.945 137.21 143.127C137.614 143.399 137.879 143.489 138.145 143.58C138.212 143.194 138.28 142.808 138.348 142.421C138.348 142.421 138.387 142.654 138.748 142.598C139.398 141.976 139.688 141.411 139.977 140.845C145.059 135.638 150.14 130.43 155.788 124.994C156.562 124.461 156.769 124.157 156.976 123.852C156.976 123.852 156.984 123.986 157.179 123.875C157.575 123.453 157.775 123.142 157.975 122.831C160.397 120.29 162.819 117.748 165.889 115.076C166.761 114.46 166.985 113.975 167.209 113.49C167.209 113.49 167.369 113.394 167.753 113.486C168.226 113.473 168.394 113.366 168.39 113.265C168.381 113.031 168.289 112.801 168.231 112.569C168.231 112.569 168.374 112.426 168.758 112.502C169.23 112.473 169.396 112.364 169.391 112.264C169.381 112.031 169.287 111.802 169.227 111.572C169.227 111.572 169.372 111.433 169.76 111.506C170.179 111.241 170.212 110.901 170.244 110.562C170.244 110.562 170.384 110.442 170.762 110.511C171.178 110.24 171.214 109.899 171.251 109.558C171.251 109.558 171.35 109.379 171.724 109.434C172.385 108.958 172.672 108.429 172.96 107.899C172.96 107.899 172.977 107.98 173.272 107.959C173.776 107.46 173.985 106.981 174.195 106.502C174.195 106.502 174.359 106.395 174.748 106.487C175.17 106.24 175.203 105.903 175.236 105.565C175.236 105.565 175.339 105.375 175.718 105.43C176.385 104.958 176.672 104.43 176.96 103.903C176.96 103.903 176.985 103.983 177.278 103.962C177.782 103.462 177.992 102.983 178.202 102.504C178.202 102.504 178.336 102.362 178.721 102.424C179.399 101.946 179.691 101.405 179.984 100.865C181.739 98.9767 183.495 97.0887 185.895 95.0735C186.765 94.457 186.991 93.968 187.217 93.4789C187.217 93.4789 187.374 93.409 187.76 93.4956C188.181 93.2407 188.216 92.8993 188.251 92.5579C188.251 92.5579 188.388 92.4371 188.763 92.5084C189.178 92.2376 189.219 91.8956 189.26 91.5535C189.26 91.5535 189.4 91.4733 189.783 91.5305C190.222 91.2317 190.278 90.8757 190.334 90.5196C190.334 90.5196 190.474 90.3636 190.792 90.4794C191.407 90.4238 191.703 90.2524 192 90.0809C199.862 87.4566 205.827 89.7724 208.377 96.4242C210.442 101.811 207.93 106.055 204.521 109.658C198.923 115.574 192.943 121.127 186.518 127.07C185.663 127.66 185.415 128.013 185.167 128.366C185.167 128.366 185.154 128.159 184.964 128.249C184.577 128.667 184.38 128.995 184.182 129.323C184.182 129.323 184.154 129.149 183.955 129.24C183.565 129.662 183.374 129.992 183.183 130.321C183.183 130.321 183.155 130.149 182.955 130.241C182.566 130.664 182.377 130.995 182.188 131.326C182.188 131.326 182.159 131.15 181.961 131.243C181.566 131.664 181.369 131.991 181.172 132.318C181.172 132.318 181.145 132.142 180.948 132.236C180.56 132.659 180.369 132.989 180.177 133.319C180.177 133.319 180.15 133.145 179.952 133.237C179.56 133.656 179.366 133.984 179.172 134.312C179.172 134.312 179.146 134.14 178.947 134.234C178.556 134.655 178.362 134.982 178.169 135.31C178.169 135.31 178.143 135.138 177.946 135.231C177.551 135.646 177.353 135.969 177.154 136.292C177.154 136.292 177.131 136.126 176.934 136.222C176.542 136.642 176.347 136.965 176.152 137.288C176.152 137.288 176.129 137.124 175.932 137.221C175.54 137.64 175.345 137.962 175.15 138.285C175.15 138.285 175.127 138.122 174.93 138.219C174.538 138.639 174.343 138.961 174.148 139.284C174.148 139.284 174.126 139.121 173.929 139.218C173.537 139.638 173.342 139.961 173.147 140.283C173.147 140.283 173.125 140.12 172.928 140.218C172.537 140.638 172.342 140.961 172.148 141.284C172.148 141.284 172.126 141.121 171.928 141.218C171.537 141.637 171.343 141.96 171.149 142.284C171.149 142.284 171.127 142.122 170.929 142.217C170.536 142.635 170.341 142.957 170.146 143.279C170.146 143.279 170.124 143.119 169.926 143.215C169.534 143.634 169.34 143.956 169.146 144.278C169.146 144.278 169.125 144.12 168.927 144.213C168.525 144.618 168.322 144.931 168.119 145.245C168.119 145.245 168.102 145.099 167.904 145.196C167.507 145.604 167.307 145.914 167.108 146.224C167.108 146.224 167.094 146.087 166.896 146.19C166.501 146.604 166.304 146.914 166.107 147.224C166.107 147.224 166.092 147.089 165.893 147.191C165.5 147.605 165.305 147.918 165.111 148.23C165.111 148.23 165.095 148.089 164.896 148.197C164.513 148.627 164.329 148.95 164.144 149.273C164.144 149.273 164.123 149.119 163.923 149.209C163.52 149.61 163.316 149.921 163.112 150.232C163.112 150.232 163.097 150.093 162.896 150.192C162.5 150.602 162.304 150.914 162.108 151.226C162.108 151.226 162.093 151.089 161.893 151.189C161.498 151.601 161.303 151.914 161.108 152.226C161.108 152.226 161.093 152.089 160.893 152.188C160.498 152.601 160.303 152.914 160.108 153.226C160.108 153.226 160.093 153.089 159.893 153.19C159.501 153.606 159.309 153.922 159.117 154.238C159.117 154.238 159.1 154.096 158.901 154.194C158.503 154.603 158.305 154.914 158.106 155.225C158.106 155.225 158.091 155.087 157.892 155.188C157.497 155.6 157.302 155.912 157.106 156.224C157.106 156.224 157.091 156.087 156.892 156.188C156.497 156.6 156.302 156.911 156.107 157.223C156.107 157.223 156.092 157.087 155.892 157.188C155.497 157.599 155.301 157.911 155.106 158.223C155.106 158.223 155.091 158.087 154.891 158.189C154.499 158.606 154.307 158.921 154.115 159.236C154.115 159.236 154.099 159.094 153.9 159.194C153.505 159.608 153.31 159.922 153.115 160.236C153.115 160.236 153.099 160.094 152.9 160.194C152.505 160.608 152.31 160.922 152.115 161.235C152.115 161.235 152.098 161.094 151.899 161.194C151.504 161.606 151.307 161.918 151.11 162.231C151.11 162.231 151.096 162.091 150.897 162.189C150.497 162.596 150.296 162.903 150.094 163.211C150.094 163.211 150.081 163.079 149.881 163.181C149.488 163.593 149.294 163.903 149.1 164.213C149.1 164.213 149.086 164.081 148.885 164.185C148.494 164.603 148.304 164.918 148.114 165.234C148.114 165.234 148.098 165.093 147.898 165.192C147.504 165.604 147.31 165.917 147.116 166.231C147.116 166.231 147.1 166.095 146.898 166.194C146.503 166.608 146.31 166.923 146.118 167.237C146.118 167.237 146.099 167.089 145.897 167.198C145.495 167.635 145.295 167.963 145.095 168.291C145.101 168.625 144.952 168.863 144.004 169.023C139.18 169.054 135.001 169.063 130.822 169.073C129.612 167.961 128.402 166.849 127.065 165.107C126.453 164.214 125.969 163.951 125.485 163.689C125.485 163.689 125.466 163.575 125.503 163.251C125.197 162.808 124.853 162.69 124.51 162.572C124.51 162.572 124.912 162.563 124.75 162.235C124.239 161.74 123.89 161.573 123.541 161.406C123.541 161.406 123.702 161.325 123.666 161.097C123.281 160.691 122.931 160.513 122.582 160.335C122.582 160.335 122.726 160.3 122.759 159.997C122.116 159.193 121.439 158.694 120.763 158.194C120.763 158.194 120.893 158.167 120.83 157.984C120.553 157.553 120.339 157.306 120.126 157.058C114.149 150.927 108.173 144.796 102.046 138.016C101.427 137.083 100.959 136.797 100.491 136.512C100.491 136.512 100.6 136.279 100.598 136.089C100.239 135.754 99.8822 135.61 99.5251 135.466C99.5251 135.466 99.5732 135.473 99.6547 135.113C99.0664 134.246 98.3967 133.74 97.7271 133.234C97.7271 133.234 97.8727 133.191 97.7895 132.979C97.3812 132.569 97.056 132.372 96.7308 132.175C96.7308 132.175 96.8937 132.148 96.8073 131.947C96.4019 131.544 96.083 131.343 95.7641 131.142C95.7641 131.142 95.8875 131.124 95.8964 130.847C95.4423 130.324 94.9794 130.078 94.5165 129.832C94.5165 129.832 94.3195 129.563 94.5232 129.022C95.1018 124.584 95.4769 120.686 95.8519 116.788C95.8519 116.788 95.8812 116.914 96.0966 116.82C96.5037 116.404 96.6954 116.081 96.887 115.759C96.887 115.759 96.9094 115.912 97.1105 115.826C97.5197 115.434 97.7277 115.128 97.9357 114.821C97.9357 114.821 97.9431 114.928 98.3193 114.95C101.848 114.502 105 114.032 108.152 113.562C108.152 113.562 108.47 113.275 108.532 113.684C109.795 114.718 110.994 115.345 112.194 115.971Z" fill="#112332"/>
<path d="M77.0175 187.551C76.375 186.465 75.1505 184.911 75.1454 183.354C75.0354 149.859 75.0434 116.364 75.1213 82.8691C75.1248 81.3565 75.9989 79.8459 76.8508 78.2011C77.1552 89.3457 77.0232 100.624 77.0084 111.901C76.9756 136.962 77.0015 162.022 77.0175 187.551Z" fill="#030305"/>
<path d="M78.0217 190.999C78.0235 190.573 78.0253 190.146 78.0149 189.399C90.1316 189.2 102.26 189.4 114.389 189.423C136.336 189.464 158.283 189.399 180.708 189.36C181.153 189.629 181.12 189.916 180.582 190.618C146.059 191.022 112.04 191.01 78.0217 190.999Z" fill="#030305"/>
<path d="M30.9097 213.61C30.5497 212.644 30.0458 211.212 30.0444 209.78C29.9953 157.884 29.9918 105.987 29.9954 54.0914C29.9955 53.269 30.1631 52.4467 30.5139 51.2966C30.8421 86.0636 30.9183 121.158 30.9721 156.253C31.0011 175.217 30.992 194.181 30.9097 213.61Z" fill="#2B3B49"/>
<path d="M62.1205 68.4761C62.2045 70.9829 62.0398 73.8745 62.0385 76.766C62.0229 112.926 61.9786 149.086 62.111 185.246C62.1247 189 63.2234 192.75 63.7211 196.908C62.756 194.386 61.1472 191.461 61.1333 188.528C60.9528 150.415 60.9858 112.301 61.0283 74.187C61.0303 72.4113 61.6276 70.6362 62.1205 68.4761Z" fill="#030305"/>
<path d="M71.062 203.621C108.155 203.518 145.441 203.813 182.728 203.933C185.626 203.942 188.529 202.719 191.844 202.125C189.203 203.163 186.151 204.979 183.089 204.996C147.727 205.19 112.363 205.13 77.0001 205.058C75.0845 205.054 73.1703 204.352 71.062 203.621Z" fill="#030305"/>
<path d="M78.5818 77.3805C79.9114 76.9631 81.6989 76.093 83.4885 76.0885C116.184 76.0066 148.879 76.0492 181.574 75.9963C184.842 75.991 188.108 75.5389 191.658 75.5266C188.895 76.2626 185.85 77.1935 182.802 77.2043C148.215 77.3277 113.628 77.3104 78.5818 77.3805Z" fill="#030305"/>
<path d="M197.578 196.062C197.551 179.493 197.816 162.651 198.145 145.335C198.505 146.219 199.055 147.575 199.061 148.934C199.125 162.139 199.158 175.345 199.041 188.55C199.019 190.966 198.28 193.375 197.578 196.062Z" fill="#030305"/>
<path d="M184.681 147.969C184.919 160.468 184.919 173.097 184.919 185.725C184.639 185.729 184.359 185.732 184.079 185.735C184.079 173.823 184.079 161.912 184.058 149.535C184.172 148.746 184.308 148.422 184.681 147.969Z" fill="#030305"/>
<path d="M131 169.396C135.001 169.063 139.18 169.054 143.785 169.057C140.03 172.568 135.669 172.432 131 169.396Z" fill="#080D14"/>
<path d="M95.5363 116.988C95.477 120.686 95.102 124.584 94.5653 128.861C91.7245 125.022 92.6578 121.05 95.5363 116.988Z" fill="#080D14"/>
<path d="M107.94 113.31C105 114.032 101.848 114.502 98.2673 114.937C101.135 114.288 104.431 113.673 107.94 113.31Z" fill="#080D14"/>
<path d="M196.008 142.431C194.023 143.175 191.843 143.582 189.247 143.948C191.159 143.303 193.486 142.699 196.008 142.431Z" fill="#030305"/>
<path d="M66.9583 201.432C68.0414 201.759 69.2776 202.369 70.4022 203.33C69.2309 203.025 68.1711 202.371 66.9583 201.432Z" fill="#030305"/>
<path d="M112.06 115.687C110.994 115.345 109.795 114.718 108.729 113.766C109.884 114.095 110.905 114.749 112.06 115.687Z" fill="#080D14"/>
<path d="M97.8323 133.506C98.3967 133.74 99.0663 134.246 99.6214 135.118C98.9837 134.915 98.4606 134.347 97.8323 133.506Z" fill="#080D14"/>
<path d="M120.861 158.477C121.439 158.694 122.116 159.193 122.72 160.06C122.085 159.871 121.522 159.315 120.861 158.477Z" fill="#080D14"/>
<path d="M198.42 144.299C197.86 144.088 197.151 143.623 196.534 142.802C197.174 142.978 197.722 143.511 198.42 144.299Z" fill="#030305"/>
<path d="M125.646 163.902C125.969 163.951 126.453 164.214 126.963 164.812C126.594 164.803 126.201 164.459 125.646 163.902Z" fill="#080D14"/>
<path d="M196.462 198.107C196.385 197.642 196.578 197.014 197.111 196.287C197.211 196.774 196.972 197.359 196.462 198.107Z" fill="#030305"/>
<path d="M63.5874 197.77C63.9345 197.849 64.4394 198.169 64.9349 198.838C64.532 198.795 64.1386 198.402 63.5874 197.77Z" fill="#030305"/>
<path d="M139.72 140.964C139.688 141.411 139.398 141.976 138.763 142.481C138.765 141.974 139.113 141.528 139.72 140.964Z" fill="#030305"/>
<path d="M187.024 93.6495C186.991 93.968 186.765 94.4571 186.2 94.9609C186.184 94.5905 186.507 94.2054 187.024 93.6495Z" fill="#030305"/>
<path d="M138.145 142.534C138.28 142.808 138.212 143.194 138.145 143.58C137.879 143.489 137.614 143.399 137.22 143.045C137.41 142.964 137.694 142.919 138.145 142.534Z" fill="#030305"/>
<path d="M179.749 100.974C179.691 101.405 179.399 101.946 178.792 102.358C178.824 101.847 179.17 101.466 179.749 100.974Z" fill="#030305"/>
<path d="M178.015 102.67C177.992 102.983 177.782 103.462 177.238 103.951C177.212 103.585 177.52 103.21 178.015 102.67Z" fill="#030305"/>
<path d="M176.726 103.998C176.672 104.431 176.385 104.958 175.792 105.352C175.822 104.843 176.157 104.468 176.726 103.998Z" fill="#030305"/>
<path d="M174.008 106.668C173.985 106.981 173.776 107.46 173.232 107.95C173.205 107.584 173.514 107.209 174.008 106.668Z" fill="#030305"/>
<path d="M172.722 107.991C172.672 108.429 172.385 108.958 171.79 109.356C171.816 108.843 172.151 108.463 172.722 107.991Z" fill="#030305"/>
<path d="M167.019 113.661C166.985 113.975 166.761 114.46 166.199 114.963C166.182 114.598 166.505 114.215 167.019 113.661Z" fill="#030305"/>
<path d="M100.642 136.741C100.959 136.797 101.427 137.083 101.956 137.684C101.609 137.657 101.201 137.313 100.642 136.741Z" fill="#080D14"/>
<path d="M114.338 117.984C114.029 117.957 113.563 117.738 113.08 117.188C113.435 117.17 113.807 117.481 114.338 117.984Z" fill="#080D14"/>
<path d="M94.6685 130.031C94.9794 130.078 95.4423 130.324 95.8816 130.908C95.5121 130.907 95.1663 130.569 94.6685 130.031Z" fill="#080D14"/>
<path d="M115.335 119.088C115.121 119.161 114.843 119.121 114.723 118.86C115.028 118.731 115.158 118.843 115.335 119.088Z" fill="#080D14"/>
<path d="M116.311 120.053C116.102 120.139 115.82 120.106 115.671 119.832C115.974 119.674 116.119 119.788 116.311 120.053Z" fill="#080D14"/>
<path d="M96.6286 115.869C96.6954 116.081 96.5037 116.404 96.0329 116.81C95.9593 116.589 96.1648 116.284 96.6286 115.869Z" fill="#080D14"/>
<path d="M97.6712 114.915C97.7277 115.128 97.5197 115.434 97.034 115.816C96.9731 115.596 97.1899 115.302 97.6712 114.915Z" fill="#080D14"/>
<path d="M168.082 112.664C168.289 112.801 168.381 113.031 168.39 113.265C168.394 113.366 168.226 113.473 167.84 113.454C167.604 113.091 167.733 112.901 168.082 112.664Z" fill="#030305"/>
<path d="M169.08 111.667C169.287 111.802 169.381 112.031 169.391 112.264C169.396 112.364 169.23 112.473 168.846 112.453C168.606 112.091 168.733 111.902 169.08 111.667Z" fill="#030305"/>
<path d="M185.462 128.234C185.415 128.013 185.664 127.66 186.231 127.198C186.286 127.427 186.022 127.764 185.462 128.234Z" fill="#080D14"/>
<path d="M156.718 123.962C156.769 124.157 156.562 124.461 156.094 124.873C156.042 124.677 156.25 124.374 156.718 123.962Z" fill="#030305"/>
<path d="M170.092 110.66C170.211 110.902 170.179 111.241 169.848 111.46C169.6 111.092 169.73 110.898 170.092 110.66Z" fill="#030305"/>
<path d="M157.72 122.948C157.775 123.142 157.575 123.453 157.113 123.872C157.056 123.675 157.261 123.37 157.72 122.948Z" fill="#030305"/>
<path d="M117.033 120.885C116.892 120.949 116.742 120.951 116.754 120.85C116.917 120.749 117.023 120.822 117.033 120.885Z" fill="#080D14"/>
<path d="M191.791 89.9116C191.703 90.2524 191.407 90.4238 190.885 90.4297C190.967 90.0903 191.274 89.9163 191.791 89.9116Z" fill="#030305"/>
<path d="M188.095 92.66C188.216 92.8993 188.181 93.2408 187.843 93.4733C187.586 93.1057 187.719 92.905 188.095 92.66Z" fill="#030305"/>
<path d="M189.105 91.6515C189.219 91.8956 189.178 92.2377 188.838 92.4579C188.604 92.0894 188.741 91.8939 189.105 91.6515Z" fill="#030305"/>
<path d="M190.16 90.633C190.278 90.8757 190.222 91.2317 189.856 91.4966C189.576 91.1081 189.723 90.8884 190.16 90.633Z" fill="#030305"/>
<path d="M64.9368 199.342C65.1361 199.297 65.4425 199.518 65.8326 200.021C65.6254 200.071 65.3347 199.839 64.9368 199.342Z" fill="#030305"/>
<path d="M171.096 109.657C171.214 109.899 171.178 110.24 170.841 110.464C170.596 110.096 170.73 109.899 171.096 109.657Z" fill="#030305"/>
<path d="M65.856 200.394C66.0701 200.322 66.4038 200.516 66.8448 200.987C66.6266 201.063 66.3011 200.861 65.856 200.394Z" fill="#030305"/>
<path d="M192.398 202.188C192.339 202.025 192.502 201.779 192.808 201.648C192.951 201.763 192.621 202.105 192.398 202.188Z" fill="#030305"/>
<path d="M195.96 198.798C195.713 198.752 195.633 198.534 195.553 198.316C195.673 198.283 195.792 198.25 196.101 198.196C196.291 198.175 196.127 198.626 195.96 198.798Z" fill="#030305"/>
<path d="M175.087 105.663C175.203 105.903 175.17 106.24 174.84 106.455C174.603 106.092 174.735 105.901 175.087 105.663Z" fill="#030305"/>
<path d="M188.665 143.916C188.674 144.117 188.357 144.437 187.707 144.873C187.696 144.67 188.017 144.352 188.665 143.916Z" fill="#030305"/>
<path d="M149.357 164.107C149.294 163.903 149.488 163.593 149.947 163.186C150.012 163.394 149.813 163.697 149.357 164.107Z" fill="#080D14"/>
<path d="M148.37 165.125C148.304 164.918 148.494 164.603 148.951 164.191C149.021 164.401 148.824 164.709 148.37 165.125Z" fill="#080D14"/>
<path d="M147.372 166.123C147.31 165.917 147.504 165.604 147.968 165.199C148.035 165.41 147.832 165.713 147.372 166.123Z" fill="#080D14"/>
<path d="M146.374 167.13C146.31 166.923 146.503 166.608 146.966 166.201C147.034 166.414 146.832 166.718 146.374 167.13Z" fill="#080D14"/>
<path d="M145.354 168.164C145.295 167.963 145.495 167.635 145.971 167.204C146.036 167.413 145.824 167.725 145.354 168.164Z" fill="#080D14"/>
<path d="M165.368 148.123C165.305 147.918 165.5 147.605 165.961 147.197C166.027 147.406 165.826 147.711 165.368 148.123Z" fill="#080D14"/>
<path d="M166.363 147.116C166.304 146.914 166.501 146.604 166.964 146.197C167.027 146.403 166.824 146.706 166.363 147.116Z" fill="#080D14"/>
<path d="M167.367 146.12C167.307 145.914 167.507 145.604 167.977 145.204C168.041 145.415 167.834 145.716 167.367 146.12Z" fill="#080D14"/>
<path d="M185.122 147.267C185.358 147.283 185.454 147.494 185.525 147.713C185.528 147.724 185.315 147.805 185.021 147.894C184.839 147.934 184.977 147.464 185.122 147.267Z" fill="#030305"/>
<path d="M168.38 145.139C168.322 144.931 168.525 144.618 169.006 144.223C169.069 144.438 168.855 144.736 168.38 145.139Z" fill="#080D14"/>
<path d="M169.407 144.169C169.34 143.956 169.534 143.634 170.006 143.225C170.078 143.446 169.873 143.753 169.407 144.169Z" fill="#080D14"/>
<path d="M170.407 143.17C170.34 142.957 170.535 142.635 171.01 142.227C171.082 142.448 170.875 142.755 170.407 143.17Z" fill="#080D14"/>
<path d="M137.127 142.675C136.928 142.723 136.621 142.507 136.212 142.02C136.413 141.969 136.715 142.189 137.127 142.675Z" fill="#030305"/>
<path d="M163.372 150.127C163.316 149.921 163.52 149.61 164 149.219C164.061 149.433 163.847 149.728 163.372 150.127Z" fill="#080D14"/>
<path d="M159.374 154.13C159.309 153.922 159.501 153.606 159.962 153.196C160.031 153.409 159.831 153.715 159.374 154.13Z" fill="#080D14"/>
<path d="M160.366 153.12C160.303 152.914 160.498 152.601 160.962 152.195C161.028 152.406 160.826 152.71 160.366 153.12Z" fill="#080D14"/>
<path d="M157.364 156.118C157.302 155.912 157.497 155.6 157.961 155.195C158.027 155.404 157.824 155.708 157.364 156.118Z" fill="#080D14"/>
<path d="M156.364 157.116C156.302 156.911 156.497 156.6 156.961 156.194C157.026 156.403 156.824 156.706 156.364 157.116Z" fill="#080D14"/>
<path d="M161.366 152.12C161.303 151.914 161.498 151.601 161.962 151.195C162.028 151.406 161.826 151.71 161.366 152.12Z" fill="#080D14"/>
<path d="M120.073 157.332C120.339 157.306 120.553 157.553 120.816 158.049C120.584 158.067 120.302 157.837 120.073 157.332Z" fill="#080D14"/>
<path d="M155.363 158.116C155.301 157.911 155.497 157.599 155.96 157.194C156.025 157.404 155.822 157.706 155.363 158.116Z" fill="#080D14"/>
<path d="M162.365 151.12C162.304 150.914 162.5 150.602 162.966 150.199C163.031 150.41 162.827 150.712 162.365 151.12Z" fill="#080D14"/>
<path d="M154.372 159.127C154.307 158.921 154.499 158.606 154.959 158.195C155.028 158.406 154.828 158.713 154.372 159.127Z" fill="#080D14"/>
<path d="M153.373 160.128C153.31 159.922 153.505 159.608 153.971 159.201C154.037 159.413 153.834 159.717 153.373 160.128Z" fill="#080D14"/>
<path d="M164.4 149.159C164.329 148.95 164.513 148.628 164.967 148.204C165.043 148.417 164.849 148.731 164.4 149.159Z" fill="#080D14"/>
<path d="M122.696 160.584C122.931 160.513 123.281 160.691 123.645 161.185C123.376 161.278 123.093 161.055 122.696 160.584Z" fill="#080D14"/>
<path d="M152.372 161.128C152.31 160.922 152.505 160.608 152.971 160.201C153.037 160.413 152.834 160.716 152.372 161.128Z" fill="#080D14"/>
<path d="M123.651 161.635C123.89 161.573 124.239 161.74 124.55 162.224C124.261 162.315 124.011 162.089 123.651 161.635Z" fill="#080D14"/>
<path d="M151.369 162.125C151.307 161.918 151.504 161.606 151.97 161.201C152.035 161.412 151.831 161.716 151.369 162.125Z" fill="#080D14"/>
<path d="M124.622 162.756C124.853 162.69 125.197 162.808 125.451 163.224C125.116 163.368 124.906 163.174 124.622 162.756Z" fill="#080D14"/>
<path d="M150.352 163.106C150.296 162.903 150.497 162.596 150.967 162.197C151.027 162.404 150.819 162.702 150.352 163.106Z" fill="#080D14"/>
<path d="M96.8394 132.437C97.056 132.372 97.3812 132.569 97.7789 133.054C97.5502 133.127 97.2491 132.913 96.8394 132.437Z" fill="#080D14"/>
<path d="M181.435 132.207C181.369 131.991 181.566 131.664 182.05 131.256C182.123 131.483 181.91 131.789 181.435 132.207Z" fill="#080D14"/>
<path d="M95.8701 131.404C96.0831 131.343 96.4021 131.544 96.7953 132.028C96.5718 132.096 96.2739 131.88 95.8701 131.404Z" fill="#080D14"/>
<path d="M182.45 131.216C182.377 130.995 182.567 130.664 183.042 130.253C183.123 130.484 182.917 130.795 182.45 131.216Z" fill="#080D14"/>
<path d="M183.444 130.21C183.374 129.992 183.565 129.662 184.042 129.253C184.121 129.482 183.913 129.791 183.444 130.21Z" fill="#080D14"/>
<path d="M180.44 133.208C180.369 132.989 180.56 132.659 181.036 132.247C181.115 132.476 180.909 132.787 180.44 133.208Z" fill="#080D14"/>
<path d="M184.445 129.215C184.38 128.995 184.577 128.667 185.066 128.27C185.141 128.502 184.924 128.804 184.445 129.215Z" fill="#080D14"/>
<path d="M158.365 155.12C158.305 154.914 158.503 154.603 158.972 154.201C159.036 154.412 158.83 154.713 158.365 155.12Z" fill="#080D14"/>
<path d="M174.409 139.175C174.343 138.961 174.538 138.639 175.012 138.229C175.084 138.45 174.877 138.758 174.409 139.175Z" fill="#080D14"/>
<path d="M171.41 142.174C171.343 141.96 171.537 141.637 172.01 141.227C172.083 141.449 171.877 141.757 171.41 142.174Z" fill="#080D14"/>
<path d="M136.176 141.642C135.963 141.698 135.642 141.483 135.236 140.978C135.457 140.917 135.763 141.144 136.176 141.642Z" fill="#030305"/>
<path d="M172.409 141.174C172.342 140.961 172.537 140.638 173.01 140.227C173.083 140.448 172.877 140.757 172.409 141.174Z" fill="#080D14"/>
<path d="M135.22 140.621C134.997 140.651 134.65 140.356 134.179 139.729C134.401 139.697 134.748 139.996 135.22 140.621Z" fill="#030305"/>
<path d="M173.409 140.174C173.342 139.961 173.537 139.638 174.01 139.228C174.083 139.449 173.877 139.757 173.409 140.174Z" fill="#080D14"/>
<path d="M175.411 138.176C175.345 137.962 175.54 137.64 176.014 137.231C176.087 137.452 175.88 137.76 175.411 138.176Z" fill="#080D14"/>
<path d="M176.414 137.179C176.347 136.965 176.542 136.642 177.017 136.233C177.089 136.455 176.882 136.762 176.414 137.179Z" fill="#080D14"/>
<path d="M177.417 136.184C177.353 135.969 177.551 135.646 178.032 135.242C178.104 135.466 177.892 135.771 177.417 136.184Z" fill="#080D14"/>
<path d="M99.6523 135.685C99.8823 135.61 100.239 135.754 100.58 136.216C100.302 136.324 100.041 136.114 99.6523 135.685Z" fill="#080D14"/>
<path d="M178.431 135.2C178.362 134.982 178.556 134.655 179.033 134.245C179.11 134.473 178.902 134.781 178.431 135.2Z" fill="#080D14"/>
<path d="M179.435 134.202C179.366 133.984 179.56 133.656 180.039 133.249C180.115 133.476 179.906 133.784 179.435 134.202Z" fill="#080D14"/>
<path d="M78.3154 191.297C112.04 191.011 146.059 191.022 180.544 191.05C179.775 191.384 178.54 191.977 177.303 191.979C145.213 192.028 113.123 192.019 81.0335 191.997C80.2253 191.996 79.4173 191.735 78.3154 191.297Z" fill="#1D303F"/>
</svg>
