<svg width="1024" height="1024" viewBox="0 0 1024 1024" fill="none" xmlns="http://www.w3.org/2000/svg">
<path d="M138.18 89.1823C140.836 89.1715 140.836 89.1715 143.546 89.1604C147.265 89.1495 150.985 89.1444 154.705 89.1447C160.307 89.14 165.909 89.1006 171.511 89.0595C208.027 88.9302 237.627 90.5811 264.908 119.891C267.595 123.487 270.266 127.098 272.912 130.729C276.207 133.673 279.542 136.565 282.918 139.399C287.545 144.005 287.545 144.005 290.922 148.069C290.922 149.499 290.922 150.93 290.922 152.404C293.894 153.477 293.894 153.477 296.926 154.571C299.264 157.61 301.592 160.658 303.852 163.766C308.626 169.673 314.198 174.492 319.79 179.464C320.83 180.548 321.869 181.632 322.94 182.749C322.94 184.179 322.94 185.61 322.94 187.084C324.798 187.888 324.798 187.888 326.693 188.709C331.753 191.933 332.383 194.533 334.947 200.089C336.268 200.804 337.589 201.519 338.949 202.256C344.009 204.996 344.481 207.737 346.954 213.094C351.023 215.842 351.023 215.842 354.958 217.429C354.958 218.859 354.958 220.29 354.958 221.764C356.665 222.522 356.665 222.522 358.406 223.296C365.777 227.829 370.73 234.911 376.338 241.703C380.679 246.218 380.679 246.218 386.164 245.411C397.174 240.9 403.982 231.559 410.99 221.764C414.284 218.107 417.619 214.493 420.996 210.926C422.44 209.272 423.885 207.618 425.373 205.914C429 202.256 429 202.256 433.003 202.256C433.745 200.244 433.745 200.244 434.503 198.192C437.48 192.711 439.88 192.029 445.009 189.251C446.355 186.368 447.688 183.477 449.012 180.581C451.695 177.182 451.695 177.182 454.741 173.952C455.857 172.757 456.973 171.563 458.122 170.332C459.865 168.499 459.865 168.499 461.644 166.628C462.783 165.414 463.921 164.2 465.095 162.949C467.339 160.557 469.588 158.169 471.839 155.785C477.453 149.829 483.054 143.867 488.409 137.638C491.035 135.064 491.035 135.064 495.038 135.064C495.486 133.834 495.935 132.605 496.398 131.338C506.511 112.411 528.347 100.784 547.094 94.8035C559.066 91.3503 570.316 90.7582 582.654 90.7767C586.038 90.7436 586.038 90.7436 589.49 90.7098C596.929 90.6447 604.367 90.6244 611.807 90.6047C617.08 90.5678 622.353 90.5281 627.627 90.4859C640.219 90.3903 652.811 90.328 665.404 90.2786C679.826 90.2209 694.248 90.1312 708.67 90.0406C735.359 89.8742 762.048 89.7479 788.737 89.6414C806.197 89.5708 823.656 89.478 841.115 89.3679C855.153 89.2802 869.191 89.2146 883.229 89.1687C888.548 89.1513 893.866 89.1248 899.185 89.0937C906.3 89.0562 913.413 89.0465 920.528 89.0468C922.51 89.0314 924.493 89.0159 926.536 89C938.642 89.0441 948.659 89.5025 958.174 98.4873C962.347 106.804 961.162 113.162 959.3 122.059C957.222 128.589 954.625 134.787 951.928 141.041C950.814 143.7 950.814 143.7 949.677 146.413C947.278 152.123 944.848 157.818 942.415 163.512C940.754 167.436 939.094 171.36 937.437 175.286C934.977 181.108 932.514 186.929 930.042 192.745C925.585 203.242 921.223 213.769 917.002 224.38C916.135 226.538 915.268 228.696 914.375 230.919C912.879 234.659 911.406 238.41 909.964 242.174C903.011 259.31 894.019 273.474 877.576 280.497C864.519 285.471 852.461 285.809 838.729 285.667C834.803 285.68 830.877 285.693 826.952 285.706C822.776 285.711 818.6 285.696 814.424 285.674C805.673 285.63 796.922 285.652 788.171 285.683C768.013 285.746 747.855 285.723 727.697 285.699C709.215 285.678 690.734 285.676 672.252 285.742C663.578 285.771 654.906 285.759 646.232 285.713C642.122 285.698 638.013 285.703 633.903 285.717C628.928 285.734 623.953 285.72 618.979 285.668C596.119 285.848 576.499 291.974 557.315 305.5C553.336 308.278 549.336 310.596 545.066 312.798C545.066 314.229 545.066 315.66 545.066 317.133C542.118 320.314 542.118 320.314 538.046 323.991C529.544 331.823 521.403 339.985 513.298 348.291C504.255 357.524 495.185 366.7 485.907 375.656C479.159 382.172 472.736 388.915 466.404 395.9C462.938 399.585 459.337 402.995 455.64 406.407C446.95 414.47 439.003 423.277 431.074 432.203C428.454 435.107 425.733 437.904 422.997 440.681C421.676 440.681 420.355 440.681 418.995 440.681C418.995 442.111 418.995 443.542 418.995 445.016C407.808 457.502 395.83 469.71 379.222 470.01C367.227 466.761 358.219 455.665 349.815 446.447C348.607 445.137 347.4 443.828 346.155 442.48C343.618 439.725 341.085 436.965 338.558 434.2C334.705 429.988 330.837 425.793 326.966 421.601C324.492 418.911 322.02 416.22 319.548 413.528C318.401 412.283 317.255 411.039 316.073 409.757C311.223 404.442 306.703 399.189 302.391 393.338C299.285 388.478 299.285 388.478 294.925 386.493C294.925 385.063 294.925 383.632 294.925 382.158C293.604 382.158 292.283 382.158 290.922 382.158C288.096 379.041 288.096 379.041 284.786 374.691C275.291 362.59 264.806 351.668 254.304 340.603C252.832 339.033 251.361 337.463 249.844 335.845C248.508 334.434 247.172 333.024 245.796 331.57C242.895 327.971 242.895 327.971 242.895 323.636C239.924 322.563 239.924 322.563 236.892 321.468C234.477 318.652 234.477 318.652 232.014 315.779C230.322 314.08 228.63 312.381 226.886 310.631C222.61 311.243 222.61 311.243 218.882 312.798C218.886 314.798 218.891 316.797 218.895 318.857C219.021 377.668 219.012 436.478 218.907 495.288C218.889 505.179 218.875 515.071 218.865 524.962C218.833 552.047 218.766 579.13 218.614 606.214C218.548 618.011 218.499 629.807 218.491 641.604C218.482 652.739 218.427 663.874 218.335 675.009C218.309 679.102 218.3 683.195 218.309 687.289C218.319 692.9 218.267 698.507 218.2 704.118C218.226 706.539 218.226 706.539 218.252 709.01C218.001 721.556 213.958 729.965 206.875 739.795C186.612 760.645 151.487 755.618 125.166 755.105C113.027 754.72 100.915 753.788 88.8083 752.8C88.8083 751.369 88.8083 749.939 88.8083 748.465C87.405 748.063 86.0017 747.66 84.5559 747.246C76.6201 742.948 71.1934 737.325 66.7958 728.958C62.7043 714.589 62.2193 700.538 62.2719 685.609C62.2642 683.279 62.2566 680.95 62.2487 678.551C62.2281 670.784 62.236 663.017 62.244 655.251C62.2353 649.667 62.2249 644.083 62.213 638.499C62.1875 624.929 62.1839 611.359 62.1886 597.789C62.1921 586.755 62.1886 575.721 62.1801 564.687C62.1789 563.113 62.1777 561.54 62.1765 559.919C62.1741 556.723 62.1716 553.527 62.1692 550.33C62.1475 520.387 62.1518 490.444 62.164 460.501C62.1743 433.137 62.1518 405.772 62.1137 378.407C62.0749 350.274 62.0584 322.141 62.066 294.007C62.0698 278.227 62.0649 262.446 62.0365 246.665C62.0101 231.826 62.0152 216.987 62.0413 202.148C62.0461 196.708 62.0406 191.268 62.0241 185.828C62.0031 178.39 62.0194 170.953 62.0447 163.515C62.03 161.374 62.0152 159.232 62 157.026C62.1362 137.978 65.2741 119.702 76.8015 104.719C95.5397 89.173 115.426 89.2156 138.18 89.1823Z" fill="#FE7222"/>
<path d="M754.568 374.365C757.958 374.344 757.958 374.344 761.417 374.322C766.186 374.3 770.956 374.289 775.725 374.29C783.004 374.281 790.28 374.202 797.559 374.12C802.202 374.107 806.845 374.098 811.488 374.094C813.654 374.063 815.821 374.032 818.053 374C830.885 374.084 838.816 375.399 849.212 383.763C854.958 392.316 855.809 398.457 854.413 408.834C851.831 420.2 846.755 430.561 842.082 441.061C840.919 443.718 839.758 446.377 838.599 449.036C828.249 472.697 817.634 496.223 807.039 519.756C798.836 537.993 790.843 556.316 783.036 574.757C769.261 607.235 754.665 639.277 740.096 671.343C727.692 698.653 715.471 726.05 703.381 753.524C700.518 760.02 697.637 766.507 694.748 772.99C693.89 774.918 693.032 776.847 692.147 778.834C690.322 782.932 688.494 787.029 686.665 791.126C681.491 802.762 676.403 814.432 671.464 826.188C668.86 832.386 666.237 838.574 663.614 844.763C662.356 847.751 661.108 850.743 659.871 853.741C647.393 883.986 632.722 912.214 603.521 926.132C575.854 937.16 542.392 938.255 514.53 927.428C487.434 913.814 470.528 889.672 452.274 865.074C447.457 858.645 442.493 852.36 437.516 846.077C428.908 835.163 420.694 823.956 412.558 812.626C407.815 806.043 403.007 799.608 397.86 793.384C390.622 784.63 384.024 775.373 377.36 766.107C371.32 757.73 365.148 749.504 358.83 741.369C348.738 728.342 338.962 715.08 329.375 701.616C326.964 698.244 324.516 694.903 322.067 691.563C312.272 677.791 304.212 664.691 305.062 646.718C306.685 635.819 309.011 627.544 316.797 620C341.962 600.389 385.096 604.423 414.233 609.561C440.781 616.629 457.598 634.481 474.061 656.903C479.267 663.801 484.716 670.361 490.308 676.891C512.95 703.405 512.95 703.405 512.95 708.859C514.271 708.859 515.592 708.859 516.953 708.859C519.991 712.542 522.888 716.36 525.71 720.238C533.737 731.413 533.737 731.413 542.974 741.369C544.955 741.369 546.937 741.369 548.978 741.369C566.757 702.177 584.127 662.836 600.707 623.031C601.934 620.085 603.161 617.138 604.389 614.192C604.975 612.784 605.561 611.377 606.165 609.927C610.669 599.134 615.302 588.415 620.034 577.737C627.325 561.267 634.306 544.651 641.257 528.011C652.099 502.072 663.007 476.165 674.124 450.363C675.492 447.183 676.855 444 678.212 440.815C700.652 388.199 700.652 388.199 723.916 377.145C734.152 374.23 744.025 374.389 754.568 374.365Z" fill="#FE7222"/>
<path d="M114.781 92.0702C109.253 95.248 103.905 97.4678 97.9095 99.3815C86.9975 103.296 80.2477 108.399 74.2902 119.149C70.033 128.374 68.5426 135.143 68.5343 145.38C68.5279 147.387 68.5214 149.393 68.5148 151.46C68.5179 153.657 68.521 155.853 68.5241 158.116C68.5196 160.456 68.5151 162.795 68.5104 165.206C68.4977 173.072 68.4994 180.938 68.5011 188.804C68.4951 194.433 68.4883 200.062 68.4807 205.691C68.4641 219.412 68.4586 233.132 68.4575 246.853C68.4565 258.007 68.4524 269.162 68.4461 280.316C68.4285 311.945 68.4193 343.575 68.4208 375.204C68.4209 377.762 68.4209 377.762 68.421 380.371C68.4211 382.079 68.4212 383.786 68.4212 385.545C68.4221 413.207 68.4029 440.869 68.3747 468.531C68.346 496.937 68.3322 525.344 68.3339 553.751C68.3346 569.698 68.3291 585.644 68.3076 601.591C68.2875 616.591 68.2881 631.591 68.3026 646.591C68.3047 652.096 68.3 657.601 68.2879 663.106C68.2725 670.623 68.2817 678.139 68.2972 685.655C68.2869 687.832 68.2766 690.01 68.266 692.253C68.3367 707.858 68.9614 725.326 78.7891 737.637C95.1981 751.54 114.476 750.056 134.22 749.762C139.763 749.688 145.299 749.718 150.842 749.76C177.027 750.323 177.027 750.323 200.76 739.804C208.966 729.318 212.953 718.876 213.073 705.117C213.093 703.41 213.113 701.703 213.133 699.944C213.144 698.091 213.156 696.239 213.168 694.33C213.187 692.364 213.207 690.397 213.228 688.371C213.291 681.878 213.34 675.384 213.39 668.89C213.431 664.386 213.473 659.881 213.516 655.376C213.626 643.524 213.725 631.672 213.821 619.819C213.922 607.723 214.033 595.628 214.143 583.532C214.358 559.801 214.561 536.07 214.757 512.339C215.416 512.339 216.076 512.339 216.756 512.339C216.988 539.437 217.166 566.536 217.274 593.635C217.326 606.219 217.397 618.803 217.51 631.387C217.619 643.537 217.679 655.686 217.705 667.837C217.723 672.466 217.759 677.096 217.813 681.725C217.886 688.223 217.896 694.718 217.891 701.216C217.927 703.119 217.963 705.021 218 706.981C217.896 720.497 214.585 729.271 206.758 739.804C186.512 760.643 151.415 755.618 125.115 755.106C112.986 754.721 100.884 753.79 88.7867 752.802C88.7867 751.372 88.7867 749.942 88.7867 748.469C87.3846 748.067 85.9824 747.665 84.5377 747.251C76.6083 742.955 71.1861 737.335 66.792 728.972C62.7038 714.611 62.2191 700.567 62.2717 685.646C62.264 683.319 62.2564 680.991 62.2485 678.592C62.2279 670.829 62.2358 663.067 62.2438 655.305C62.2351 649.724 62.2247 644.143 62.2128 638.562C62.1874 624.999 62.1837 611.437 62.1884 597.874C62.192 586.846 62.1885 575.818 62.18 564.789C62.1788 563.217 62.1776 561.645 62.1763 560.025C62.1739 556.83 62.1715 553.635 62.1691 550.44C62.1473 520.514 62.1516 490.587 62.1638 460.66C62.1742 433.31 62.1517 405.96 62.1137 378.61C62.0749 350.492 62.0584 322.373 62.0659 294.255C62.0697 278.483 62.0648 262.711 62.0365 246.939C62.0101 232.107 62.0152 217.276 62.0413 202.445C62.046 197.008 62.0406 191.571 62.0241 186.134C62.0031 178.7 62.0193 171.267 62.0447 163.833C62.0299 161.693 62.0152 159.552 62 157.347C62.1361 138.309 65.2715 120.043 76.7896 105.068C89.6386 94.4053 98.9568 91.489 114.781 92.0702Z" fill="#FC631E"/>
<path d="M312.715 627C314.036 627.714 315.356 628.428 316.717 629.164C315.685 630.904 314.653 632.645 313.59 634.438C309.006 646.72 311.239 656.554 314.841 668.924C322.941 687.192 336.184 702.66 348.313 717.918C354.792 726.098 360.975 734.461 367.003 743.034C378.614 759.535 390.741 775.527 403.163 791.32C430.798 826.457 430.798 826.457 430.798 832.562C432.118 832.562 433.439 832.562 434.8 832.562C438.06 836.458 438.06 836.458 441.93 841.893C443.365 843.876 444.799 845.86 446.277 847.903C447.774 849.981 449.27 852.059 450.812 854.2C483.584 900.781 483.584 900.781 530.868 925.606C539.893 926.479 548.831 926.515 557.887 926.417C560.206 926.442 562.526 926.467 564.915 926.493C590.019 926.401 609.796 919.9 628.311 901.263C636.682 891.8 642.373 880.777 646.777 868.628C649.501 861.394 652.789 854.517 656.081 847.573C662.433 834.043 668.299 820.34 673.968 806.461C679.836 792.137 686.067 778.214 693.057 764.493C699.185 752.383 704.544 739.925 709.767 727.332C714.575 715.945 714.575 715.945 719 713.552C717.85 720.872 716.193 726.933 713.142 733.577C712.344 735.332 711.546 737.087 710.723 738.895C709.418 741.718 709.418 741.718 708.086 744.598C707.182 746.581 706.277 748.565 705.345 750.609C702.402 757.06 699.443 763.503 696.484 769.947C692.434 778.8 688.393 787.659 684.358 796.521C683.364 798.703 682.37 800.886 681.346 803.134C675.693 815.592 670.174 828.097 664.892 840.744C664.311 842.129 663.73 843.514 663.132 844.942C660.563 851.09 658.031 857.252 655.551 863.443C644.361 890.475 629 913.972 603.419 926.147C575.754 937.156 542.295 938.25 514.434 927.44C487.34 913.848 470.436 889.745 452.184 865.187C447.367 858.769 442.404 852.494 437.427 846.221C428.82 835.324 420.606 824.135 412.471 812.824C407.728 806.251 402.921 799.827 397.774 793.613C390.536 784.873 383.939 775.631 377.276 766.38C371.235 758.017 365.064 749.804 358.747 741.682C348.656 728.676 338.881 715.436 329.295 701.993C326.883 698.627 324.436 695.291 321.987 691.957C312.186 678.198 303.882 664.954 305.123 646.956C307.452 632.69 307.452 632.69 312.715 627Z" fill="#FC540F"/>
<path d="M569 293C569 294.433 569 295.867 569 297.343C565.268 300.542 565.268 300.542 560.363 303.994C557.958 305.712 557.958 305.712 555.504 307.464C550.975 310.374 550.975 310.374 544.966 312.545C544.966 313.979 544.966 315.412 544.966 316.889C542.016 320.075 542.016 320.075 537.94 323.76C529.431 331.607 521.283 339.785 513.171 348.107C504.12 357.358 495.043 366.552 485.757 375.525C479.003 382.054 472.574 388.81 466.237 395.809C462.768 399.501 459.164 402.918 455.464 406.336C446.766 414.415 438.813 423.24 430.877 432.182C428.255 435.093 425.531 437.895 422.793 440.677C421.471 440.677 420.149 440.677 418.787 440.677C418.787 442.11 418.787 443.543 418.787 445.02C407.591 457.531 395.603 469.762 378.981 470.063C366.975 466.808 357.96 455.69 349.549 446.454C348.34 445.142 347.131 443.831 345.886 442.479C343.347 439.719 340.812 436.954 338.282 434.183C334.426 429.963 330.555 425.76 326.681 421.56C324.205 418.864 321.73 416.168 319.256 413.471C318.108 412.224 316.961 410.977 315.778 409.693C310.924 404.367 306.4 399.104 302.084 393.242C298.976 388.372 298.976 388.372 294.612 386.384C294.612 384.951 294.612 383.517 294.612 382.04C293.29 382.04 291.968 382.04 290.606 382.04C287.777 378.918 287.777 378.918 284.465 374.558C274.961 362.434 264.467 351.49 253.957 340.405C252.484 338.831 251.011 337.258 249.493 335.637C248.156 334.224 246.819 332.81 245.441 331.354C242.538 327.747 242.538 327.747 242.538 323.404C240.555 322.687 238.572 321.971 236.53 321.232C234.919 319.351 233.308 317.47 231.648 315.532C229.954 313.829 228.26 312.127 226.515 310.374C223.872 311.09 221.228 311.807 218.504 312.545C217.843 377.045 217.182 441.545 216.501 508C215.84 508 215.179 508 214.498 508C214.406 482.025 214.334 456.049 214.291 430.074C214.27 418.013 214.241 405.953 214.196 393.893C214.153 382.262 214.129 370.631 214.118 359C214.111 354.554 214.096 350.109 214.075 345.663C214.046 339.454 214.042 333.245 214.044 327.036C214.022 324.257 214.022 324.257 214 321.422C214.042 308.697 214.042 308.697 218.504 303.859C225.314 303.569 230.318 303.89 235.575 308.991C237.794 311.843 239.967 314.739 242.108 317.661C248.905 326.462 256.529 334.327 264.092 342.349C269.923 348.584 275.52 354.898 280.832 361.66C289.398 372.328 298.562 382.293 307.794 392.28C309.588 394.226 311.381 396.173 313.229 398.179C316.992 402.26 320.756 406.34 324.525 410.415C329.356 415.641 334.178 420.877 338.997 426.116C343.613 431.13 348.236 436.136 352.858 441.143C354.59 443.025 356.321 444.907 358.105 446.846C359.704 448.573 361.302 450.299 362.949 452.078C365.061 454.365 365.061 454.365 367.215 456.698C373.326 462.844 378.407 463.096 386.672 463.047C392.876 462.053 396.302 458.259 400.762 453.707C402.084 453.707 403.406 453.707 404.768 453.707C404.768 452.274 404.768 450.84 404.768 449.364C407.428 446.454 407.428 446.454 411.277 442.984C428.319 427.248 444.528 410.744 460.252 393.476C465.545 387.815 471.097 382.593 476.744 377.358C483.454 370.854 489.675 363.828 495.998 356.888C501.532 350.963 507.309 345.464 513.218 339.989C516.845 336.513 520.199 332.879 523.561 329.105C556.332 293 556.332 293 569 293Z" fill="#FD550F"/>
<path d="M822.362 89.4634C842.334 89.3302 862.306 89.2177 882.279 89.1655C887.7 89.1512 893.122 89.1276 898.544 89.0956C905.82 89.0577 913.096 89.0476 920.372 89.0472C922.407 89.0316 924.442 89.016 926.538 89C938.817 89.044 949.191 89.1524 958.437 98.9581C961.958 105.3 962.454 108.471 961.692 115.729C960.37 116.449 959.048 117.169 957.686 117.911C955.703 108.192 955.703 108.192 953.68 98.2763C902.42 98.0722 851.16 97.9184 799.9 97.8242C776.097 97.7792 752.295 97.718 728.493 97.618C707.739 97.5308 686.985 97.4747 666.232 97.4553C655.249 97.4439 644.267 97.4174 633.285 97.3537C622.933 97.2941 612.581 97.2762 602.228 97.2893C598.444 97.2869 594.659 97.2697 590.875 97.2361C560.095 96.9759 535.812 100.637 511.015 122.274C508.949 124.028 506.884 125.783 504.756 127.591C503.516 128.716 502.277 129.841 501 131C501.593 124.237 503.07 122.205 507.682 117.433C526.282 102.226 545.161 91.5871 568.907 91.3864C570.836 91.365 572.766 91.3437 574.753 91.3217C576.851 91.3091 578.949 91.2966 581.11 91.2836C583.344 91.2621 585.577 91.2405 587.878 91.2183C595.315 91.1491 602.751 91.0951 610.187 91.0413C615.432 90.996 620.677 90.9499 625.922 90.903C639.938 90.78 653.953 90.6729 667.968 90.5692C676.61 90.5051 685.252 90.4373 693.893 90.3688C730.019 90.0836 766.146 89.8285 802.272 89.5965C808.969 89.5532 815.665 89.5086 822.362 89.4634Z" fill="#FE540C"/>
<path d="M368.391 607.096C401.443 606.313 431.974 609.857 457.172 635.592C463.207 642.564 468.666 649.995 474.141 657.49C479.343 664.418 484.788 671.008 490.375 677.567C513 704.199 513 704.199 513 709.678C514.32 709.678 515.64 709.678 517 709.678C520.035 713.377 522.93 717.212 525.75 721.107C533.77 732.332 533.77 732.332 543 742.333C544.98 742.333 546.96 742.333 549 742.333C568.766 698.279 588.21 654.094 607 609.536C608.98 609.536 610.96 609.536 613 609.536C612.349 610.998 611.697 612.459 611.026 613.965C596.97 645.531 583.116 677.182 569.631 709.042C566.77 715.794 563.891 722.535 561 729.271C560.23 731.092 559.459 732.914 558.666 734.791C553.595 746.418 553.595 746.418 547.875 749C543 748.864 543 748.864 537 746.687C534.492 743.506 534.492 743.506 531.875 739.34C526.783 731.643 521.289 724.673 515.375 717.706C508.735 709.875 502.375 701.936 496.25 693.623C488.417 683.056 480.14 673.067 471.607 663.175C466.121 656.809 460.912 650.349 455.875 643.552C445.237 630.156 430.595 620.767 415 616.067C409.332 615.638 403.867 615.405 398.203 615.412C396.616 615.403 395.028 615.394 393.392 615.384C390.047 615.372 386.702 615.371 383.357 615.38C378.279 615.387 373.203 615.336 368.125 615.281C364.859 615.276 361.594 615.274 358.328 615.276C356.83 615.256 355.331 615.236 353.787 615.216C342.957 615.317 334.98 618.01 325 622.598C323.02 623.317 321.04 624.035 319 624.775C321 618.244 321 618.244 324.867 615.778C339.715 609.374 352.533 607.661 368.391 607.096Z" fill="#FE560F"/>
<path d="M741.207 374.655C743.243 374.627 745.279 374.599 747.377 374.57C749.577 374.554 751.776 374.538 754.042 374.522C757.441 374.495 757.441 374.495 760.909 374.469C765.709 374.439 770.51 374.415 775.31 374.398C782.635 374.361 789.957 374.266 797.281 374.17C801.947 374.148 806.612 374.13 811.278 374.115C813.461 374.077 815.644 374.039 817.894 374C830.778 374.04 838.744 375.28 849.175 383.713C854.848 392.173 855.816 398.34 854.449 408.618C851.572 420.926 845.991 432.228 840.927 443.622C839.735 446.345 838.544 449.07 837.355 451.795C833.993 459.478 830.589 467.138 827.18 474.796C825.927 477.639 825.927 477.639 824.649 480.54C813.984 504.723 813.984 504.723 809.185 507.325C811.9 495.653 815.83 485.598 820.932 474.931C821.949 472.77 821.949 472.77 822.986 470.564C824.352 467.66 825.723 464.757 827.097 461.857C829.25 457.299 831.38 452.73 833.499 448.154C834.131 446.789 834.762 445.425 835.413 444.019C838.234 437.75 840.733 431.369 843.176 424.917C843.738 423.533 844.3 422.15 844.879 420.724C848.973 410.081 849.744 401.737 849.175 390.219C847.855 390.219 846.536 390.219 845.176 390.219C843.134 388.097 841.136 385.925 839.177 383.713C834.188 381.007 830.77 381.24 825.187 381.195C823.104 381.174 821.021 381.153 818.876 381.132C816.616 381.123 814.356 381.113 812.028 381.104C809.71 381.091 807.392 381.079 805.003 381.066C800.088 381.046 795.174 381.032 790.259 381.023C782.75 381.002 775.242 380.935 767.734 380.867C762.962 380.852 758.189 380.841 753.417 380.833C750.052 380.793 750.052 380.793 746.618 380.752C735.289 380.787 726.936 381.022 717.207 388.05C715.932 388.962 714.657 389.873 713.343 390.812C703.531 399.541 698.262 409.273 692.713 421.529C691.873 423.308 691.033 425.087 690.167 426.921C685.476 436.944 681.263 447.096 677.217 457.447C674.313 464.296 671.331 471.105 668.344 477.913C667.58 479.665 666.816 481.416 666.029 483.221C661.217 494.217 656.275 505.131 651.224 516C648.601 507.468 650.502 505.193 654.012 497.177C655.089 494.689 656.166 492.202 657.276 489.639C658.465 486.95 659.655 484.261 660.846 481.573C662.047 478.83 663.246 476.086 664.443 473.341C666.866 467.795 669.3 462.255 671.74 456.717C674.884 449.562 677.945 442.368 680.982 435.159C682.684 431.158 684.387 427.156 686.09 423.155C686.841 421.348 687.592 419.541 688.365 417.68C694.826 402.695 702.612 389.484 716.583 381.815C718.075 380.971 719.567 380.127 721.105 379.257C728.092 375.764 733.597 374.745 741.207 374.655Z" fill="#FD550F"/>
<path d="M897 257C897.66 259.119 898.32 261.238 899 263.421C896.743 265.823 894.442 268.176 892.125 270.511C890.849 271.827 889.573 273.143 888.258 274.499C873.146 285.721 856.717 285.746 838.888 285.648C834.955 285.666 831.023 285.684 827.091 285.701C822.896 285.714 818.702 285.711 814.507 285.704C805.729 285.689 796.951 285.723 788.172 285.764C769.531 285.845 750.891 285.873 732.25 285.895C712.133 285.919 692.017 285.952 671.901 286.046C663.194 286.085 654.488 286.094 645.782 286.078C641.659 286.076 637.537 286.088 633.414 286.107C628.415 286.129 623.417 286.129 618.418 286.102C605.255 286.205 593.987 287.784 581.462 292.219C577 293.386 577 293.386 571 291.246C589.037 280.357 606.843 279.922 627.144 279.997C631.081 279.985 635.019 279.974 638.956 279.961C643.155 279.952 647.355 279.953 651.554 279.957C660.34 279.963 669.126 279.932 677.913 279.895C702.886 279.794 727.859 279.743 752.833 279.729C766.651 279.721 780.469 279.682 794.288 279.611C803.005 279.568 811.721 279.562 820.438 279.586C827.158 279.593 833.877 279.544 840.597 279.504C842.984 279.522 845.371 279.539 847.831 279.557C863.001 279.397 878.77 277.986 890.437 266.442C893.558 262.621 893.558 262.621 897 257Z" fill="#FE5410"/>
<path d="M214.747 512C215.408 512 216.07 512 216.752 512C216.985 539.136 217.163 566.272 217.272 593.409C217.324 606.011 217.395 618.612 217.509 631.213C217.618 643.38 217.678 655.547 217.704 667.714C217.722 672.35 217.758 676.986 217.813 681.621C217.886 688.128 217.895 694.632 217.891 701.14C217.927 703.045 217.963 704.95 218 706.913C217.896 720.447 214.575 729.234 206.724 739.781C186.415 760.649 151.211 755.618 124.829 755.104C112.664 754.719 100.524 753.787 88.3896 752.797C88.3896 751.366 88.3896 749.934 88.3896 748.459C86.2798 747.855 86.2798 747.855 84.1275 747.238C74.9414 742.27 68.6095 734.936 64.6741 724.587C61.27 710.408 61.942 695.744 62.3159 681.209C64.3015 680.135 64.3015 680.135 66.3272 679.04C66.4172 680.286 66.5072 681.532 66.6 682.816C67.0266 688.52 67.4914 694.219 67.9568 699.92C68.0977 701.88 68.2386 703.84 68.3838 705.86C69.4678 718.71 70.6159 730.173 80.2415 739.01C81.6066 739.846 82.9717 740.682 84.3782 741.544C85.7433 742.408 87.1084 743.272 88.5149 744.162C97.6232 749.148 106.322 748.882 116.289 748.976C118.942 749.002 118.942 749.002 121.65 749.029C125.401 749.059 129.152 749.082 132.904 749.099C136.714 749.124 140.524 749.168 144.334 749.232C173.853 750.882 173.853 750.882 200.707 739.781C208.933 729.271 212.938 718.831 213.058 705.046C213.078 703.337 213.098 701.627 213.118 699.866C213.129 698.011 213.141 696.156 213.153 694.244C213.173 692.275 213.192 690.306 213.213 688.277C213.276 681.775 213.326 675.272 213.376 668.769C213.417 664.258 213.459 659.747 213.502 655.236C213.613 643.368 213.712 631.499 213.808 619.63C213.909 607.517 214.021 595.405 214.132 583.292C214.347 559.528 214.551 535.764 214.747 512Z" fill="#FE3E06"/>
<path d="M495 133C496.98 134.073 496.98 134.073 499 135.169C459 178.539 459 178.539 454.215 183.689C449.211 189.152 444.289 194.688 439.383 200.254C434.363 205.93 429.3 211.56 424.234 217.188C421.571 220.164 418.922 223.155 416.287 226.161C412.463 230.517 408.59 234.815 404.703 239.106C403.538 240.459 402.373 241.812 401.173 243.205C395.329 249.549 392.562 252.104 384.131 253C374.186 248.958 368.455 242.462 361.195 234.235C359.75 232.65 358.305 231.065 356.816 229.431C352.223 224.379 347.674 219.283 343.125 214.185C340.012 210.744 336.896 207.306 333.777 203.872C326.153 195.461 318.563 187.015 311 178.539C317 178.539 317 178.539 323 182.877C323 184.308 323 185.739 323 187.214C324.237 187.75 325.475 188.287 326.75 188.84C331.807 192.066 332.437 194.666 335 200.225C336.32 200.94 337.64 201.656 339 202.393C344.057 205.135 344.528 207.876 347 213.236C351.067 215.986 351.067 215.986 355 217.573C355 219.004 355 220.436 355 221.91C356.705 222.669 356.705 222.669 358.445 223.444C365.812 227.979 370.763 235.064 376.367 241.859C380.706 246.377 380.706 246.377 386.188 245.569C397.192 241.056 403.996 231.71 411 221.91C414.292 218.252 417.625 214.636 421 211.068C422.444 209.413 423.888 207.758 425.375 206.053C429 202.393 429 202.393 433 202.393C433.495 201.052 433.99 199.71 434.5 198.327C437.475 192.844 439.874 192.161 445 189.382C446.345 186.497 447.677 183.605 449 180.708C451.682 177.307 451.682 177.307 454.727 174.075C455.842 172.88 456.957 171.685 458.105 170.454C459.848 168.62 459.848 168.62 461.625 166.748C462.763 165.533 463.901 164.319 465.074 163.067C467.32 160.672 469.569 158.281 471.824 155.895C474.736 152.798 477.612 149.66 480.484 146.52C485.075 141.594 489.89 137.275 495 133Z" fill="#FD5911"/>
<path d="M224.928 304C234.117 306.923 236.426 310.196 242.211 318.045C247.984 325.477 254.326 332.159 260.735 338.948C269.225 347.999 277.422 357.1 285.132 366.937C293.951 377.582 303.573 387.452 313 397.466C311.01 398.181 309.02 398.897 306.969 399.633C305.104 397.018 305.104 397.018 303.2 394.351C299.448 388.713 299.448 388.713 294.908 386.629C294.908 385.199 294.908 383.769 294.908 382.295C293.581 382.295 292.255 382.295 290.888 382.295C288.049 379.178 288.049 379.178 284.724 374.828C275.186 362.728 264.653 351.807 254.104 340.743C252.625 339.173 251.147 337.603 249.624 335.985C248.282 334.575 246.94 333.164 245.557 331.711C242.643 328.112 242.643 328.112 242.643 323.777C240.653 323.062 238.663 322.346 236.612 321.61C234.995 319.732 233.379 317.855 231.713 315.92C230.013 314.222 228.313 312.523 226.561 310.773C223.908 311.488 221.254 312.203 218.521 312.94C217.857 377.31 217.194 441.68 216.51 508C215.847 508 215.184 508 214.5 508C214.407 482.077 214.336 456.154 214.292 430.231C214.271 418.195 214.242 406.159 214.197 394.123C214.153 382.516 214.129 370.908 214.119 359.301C214.111 354.864 214.097 350.427 214.075 345.991C214.046 339.794 214.042 333.598 214.044 327.401C214.022 324.628 214.022 324.628 214 321.799C214.057 304.46 214.057 304.46 224.928 304Z" fill="#FE4308"/>
<path d="M955.011 120C957.878 129.36 953.964 135.073 950.26 143.543C948.61 147.403 946.964 151.265 945.322 155.128C943.871 158.531 943.871 158.531 942.391 162.003C938.295 171.712 934.379 181.506 930.444 191.293C928.15 196.971 925.855 202.647 923.559 208.323C922.021 212.137 920.489 215.954 918.965 219.774C916.794 225.206 914.596 230.625 912.393 236.041C911.409 238.532 911.409 238.532 910.406 241.073C908.764 245.072 906.9 248.961 905.001 252.823C902.031 253.9 902.031 253.9 899 255C902.12 244.103 906.099 233.826 910.377 223.427C911.089 221.688 911.801 219.948 912.535 218.156C916.716 208.027 921.099 198.064 925.755 188.18C933.349 171.994 939.882 155.337 946.434 138.626C947.258 136.529 948.083 134.433 948.932 132.274C949.67 130.381 950.409 128.488 951.169 126.538C953.011 122.177 953.011 122.177 955.011 120Z" fill="#FC530E"/>
<path d="M115 91.2106C109.461 94.4072 104.102 96.64 98.094 98.565C87.1593 102.503 80.3954 107.636 74.4255 118.449C69.7838 128.545 68.6641 135.942 68.504 147.184C68.4441 150.913 68.4441 150.913 68.3829 154.717C68.3494 157.389 68.3159 160.061 68.2814 162.814C68.2398 165.558 68.1981 168.303 68.1552 171.131C68.0465 178.41 67.9458 185.689 67.849 192.969C67.7481 200.404 67.6367 207.839 67.5261 215.274C67.3116 229.849 67.1076 244.424 66.9117 259C66.2505 259 65.5893 259 64.908 259C64.7217 242.254 64.5796 225.509 64.4928 208.762C64.4511 200.984 64.3946 193.208 64.3034 185.43C64.2158 177.914 64.1683 170.398 64.1476 162.881C64.1258 158.641 64.0633 154.403 64 150.164C63.9956 131.209 66.2056 119.751 77.431 104.83C89.5913 94.0096 99.2986 89.9909 115 91.2106Z" fill="#FE3A00"/>
<path d="M227 96C239.216 96.6617 245.932 103.112 255 111.167C256.815 112.641 258.63 114.116 260.5 115.635C265.387 120.195 268.978 125.22 273 130.667C276.293 133.61 279.626 136.501 283 139.333C287.625 143.938 287.625 143.938 291 148C291 149.43 291 150.86 291 152.333C292.98 153.048 294.96 153.763 297 154.5C300.211 158.029 300.211 158.029 303.375 162.219C304.435 163.607 305.494 164.995 306.586 166.425C307.383 167.495 308.179 168.565 309 169.667C308.01 171.812 308.01 171.812 307 174C305.387 172.219 303.775 170.438 302.113 168.603C296.076 161.944 290.017 155.306 283.953 148.675C281.341 145.813 278.734 142.945 276.133 140.07C272.374 135.918 268.595 131.789 264.812 127.662C263.099 125.755 263.099 125.755 261.351 123.81C251.145 112.749 239.93 105.02 227 98.1667C227 97.4517 227 96.7367 227 96Z" fill="#FD520C"/>
<path d="M64.5464 679C65.2139 679 65.8813 679 66.569 679C66.6598 680.25 66.7506 681.5 66.8441 682.789C67.2743 688.511 67.7431 694.229 68.2125 699.949C68.3546 701.915 68.4967 703.882 68.6431 705.908C69.728 718.703 70.9116 730.133 80.3881 739.091C88.422 744.07 95.9854 748.156 105 750.824C105 751.542 105 752.26 105 753C99.6601 753 94.3202 753 88.8185 753C88.8185 751.564 88.8185 750.127 88.8185 748.647C87.4001 748.243 85.9817 747.839 84.5203 747.423C75.2563 742.439 68.8707 735.08 64.9019 724.697C61.5012 710.605 61.6644 695.627 62.5237 681.176C63.1912 680.458 63.8587 679.74 64.5464 679Z" fill="#FA5412"/>
<path d="M569 92.0516C569 93.4797 569 94.9078 569 96.3792C566.316 96.8938 566.316 96.8938 563.578 97.4188C538.092 102.74 521.599 111.412 503 131C502.34 128.858 501.68 126.716 501 124.509C520.844 106.383 541.843 90.9928 569 92.0516Z" fill="#FD5A0F"/>
<path d="M153.125 89.0047C154.572 89.0089 156.02 89.013 157.511 89.0173C172.055 89.1394 186.506 90.1499 201 91.416C201 92.1233 201 92.8306 201 93.5594C186.166 95.3689 171.416 95.9353 156.5 95.9707C154.822 95.9804 153.145 95.99 151.416 96C141.103 95.9738 131.208 95.1474 121 93.5594C121 92.8521 121 92.1448 121 91.416C131.762 89.7922 142.246 88.9279 153.125 89.0047Z" fill="#FE4E0B"/>
<path d="M115 91.1815C109.428 94.3954 104.038 96.6404 97.9952 98.5758C81.2128 104.617 75.8755 115.184 68.1424 131.577C67.6436 132.706 67.1448 133.836 66.6308 135C64.6155 128.427 64.6155 128.427 65.8278 124.336C76.4807 101.617 91.2638 89.3383 115 91.1815Z" fill="#FD5710"/>
<path d="M617 280.205C617 280.909 617 281.612 617 282.338C611.961 283.724 606.919 285.1 601.875 286.469C600.466 286.858 599.057 287.247 597.605 287.648C588.757 290.039 580.059 291.794 571 293C583.905 281.522 600.663 279.219 617 280.205Z" fill="#FB510D"/>
<path d="M897 257C897.66 259.145 898.32 261.29 899 263.5C889.49 273.509 882.187 280.321 869 283C868.34 281.57 867.68 280.14 867 278.667C868.992 277.954 868.992 277.954 871.023 277.228C883.062 272.544 889.766 268.494 897 257Z" fill="#FB5712"/>
<path d="M941 91.6183C945.455 90.7939 945.455 90.7939 951.182 91.6183C957.293 97.9224 961.071 101.902 962 111.13C961.685 113.442 961.685 113.442 961.364 115.802C959.348 116.89 959.348 116.89 957.291 118C957.139 116.623 956.986 115.245 956.83 113.826C956.008 108.314 955.12 103.413 953.218 98.2137C947.144 94.4947 947.144 94.4947 941 93.8168C941 93.0913 941 92.3658 941 91.6183Z" fill="#FB5211"/>
<path d="M313 627C314.32 627.72 315.64 628.44 317 629.182C314.36 636.382 311.72 643.582 309 651C308.34 651 307.68 651 307 651C307.228 647.816 307.483 644.635 307.75 641.455C307.889 639.683 308.028 637.911 308.172 636.085C309 631.364 309 631.364 313 627Z" fill="#FD490A"/>
<path d="M219 304C223.679 304.646 228.348 305.394 233 306.25C227.165 310.626 223.749 311.769 217 313C217 306.25 217 306.25 219 304Z" fill="#FC5D14"/>
</svg>
