<svg width="240" height="240" viewBox="0 0 240 240" fill="none" xmlns="http://www.w3.org/2000/svg">
<path d="M3.74951 65.04C16.6595 49.15 29.4195 33.31 42.3995 17.65C43.6495 16.15 46.1095 15.25 48.1595 14.87C67.9995 11.24 87.9195 8.01001 107.72 4.17001C115.528 2.6488 123.553 2.60131 131.38 4.03001C152.38 7.68001 173.46 10.56 194.47 14.03C197.152 14.533 199.604 15.8781 201.47 17.87C213.89 31.87 225.99 46.06 238.38 60.04C240.78 62.75 241.09 64.68 238.97 67.76C201.756 121.98 164.606 176.233 127.52 230.52C126.25 232.37 124.3 233.75 122.19 235.82C82.3395 178.37 43.0895 121.77 3.74951 65.04ZM82.2695 90.39L121.95 218.82H123.23C136.39 176.21 149.54 133.59 162.87 90.42L82.2695 90.39ZM17.0495 70.98L16.3095 72.22C47.9495 118.06 79.5795 163.91 111.65 210.37C111.92 208.98 112.12 208.59 112.03 208.29C100.14 169.74 88.2795 131.18 76.1795 92.69C75.5995 90.84 73.2695 88.87 71.3295 88.22C59.4695 84.22 47.4895 80.59 35.5495 76.83C29.3762 74.89 23.2095 72.94 17.0495 70.98ZM229.57 70.98C226.57 71.77 224.98 72.12 223.44 72.6C207.44 77.65 191.44 82.88 175.31 87.68C171.4 88.85 169.54 90.81 168.38 94.6C157.046 131.76 145.613 168.893 134.08 206C133.915 207.243 133.844 208.497 133.87 209.75C166.09 163.03 197.42 117.58 229.57 70.99V70.98ZM85.3395 83.08H160.21L122.75 38.84L85.3395 83.08ZM192.75 22.47L128.58 35.9L166.49 80.7L192.75 22.47ZM52.2295 22.35C61.2295 42.35 69.6995 61.05 78.5295 80.63L116.43 35.79L52.2295 22.35ZM45.9595 23.9C34.6895 37.16 24.0495 49.58 12.8095 62.78L71.9395 81.37L45.9595 23.9ZM232.62 62.58C221.24 49.29 210.62 36.9 199.44 23.83C190.72 43.22 182.51 61.48 173.62 81.23L232.62 62.58ZM177.07 18.83V17.58C163.83 15.37 150.52 13.49 137.37 10.85C128.055 8.87878 118.437 8.82096 109.1 10.68C95.5995 13.4 81.9495 15.35 66.8395 17.89C68.2753 18.5994 69.7589 19.2076 71.2795 19.71C84.0695 22.43 96.9395 24.85 109.66 27.85C118.164 29.9599 127.055 29.9599 135.56 27.85C149.3 24.42 163.22 21.81 177.07 18.86V18.83Z" fill="black" stroke="black" stroke-width="6" stroke-miterlimit="10"/>
</svg>
