<svg width="1185" height="241" viewBox="0 0 1185 241" fill="none" xmlns="http://www.w3.org/2000/svg">
<g clip-path="url(#clip0_666_358)">
<path d="M410.07 118.33C410.07 100.07 409.69 81.7998 410.18 63.5498C410.58 48.5498 414.18 34.1098 425.34 23.1798C441.1 7.70983 460.34 6.86982 480.52 11.7598C499.46 16.3498 509.34 29.6798 513.4 47.6698C515.269 56.2116 516.238 64.926 516.29 73.6698C516.62 104.44 516.51 135.21 516.29 165.98C516.345 172.975 515.709 179.959 514.39 186.83C508.53 214.67 488.73 229.33 460.26 227.48C428.42 225.4 410.99 207.02 410.18 173.91C409.72 155.41 410.1 136.91 410.1 118.37L410.07 118.33ZM444.54 118.69C444.54 137.69 444.33 156.69 444.62 175.69C444.78 186.87 451.62 194.37 461.47 195.19C471.85 196.05 478.6 190.4 480.84 178.72C481.54 175.299 481.918 171.821 481.97 168.33C482.057 135.57 482.057 102.803 481.97 70.0298C481.931 65.2889 481.428 60.5631 480.47 55.9198C478.57 46.6198 472.31 41.7498 463 41.7498C451.37 41.7498 444.7 48.9698 444.56 62.3798C444.37 81.1698 444.51 99.9298 444.54 118.69Z" fill="black"/>
<path d="M1079.51 119.43C1079.51 99.4298 1079.31 79.4298 1079.57 59.4298C1079.84 38.2498 1092.16 19.9598 1110.3 12.9898C1131.14 4.9898 1157.3 9.81979 1170.72 24.6398C1180.6 35.5098 1184.27 49.1498 1184.45 63.3098C1184.91 100.57 1184.76 137.84 1184.54 175.11C1184.4 197.79 1171.8 217.11 1153.54 223.8C1130.76 232.14 1105.17 227.02 1091.33 211.14C1083.09 201.69 1079.82 190.23 1079.63 177.99C1079.3 158.45 1079.51 138.94 1079.51 119.43ZM1150.12 118.7C1150.12 99.6998 1150.34 80.6998 1150.05 61.6998C1149.86 49.1798 1143.63 42.2798 1133.23 41.9198C1121.5 41.5198 1115.51 46.9198 1113.83 59.8098C1113.26 64.0132 1112.97 68.2485 1112.94 72.4898C1112.86 99.9831 1112.86 127.48 1112.94 154.98C1112.94 163.2 1112.56 171.68 1114.43 179.55C1115.65 184.71 1119.6 190.91 1124.1 193.27C1136.91 199.98 1149.56 191.21 1149.99 175.67C1150.52 156.7 1150.13 137.7 1150.12 118.7Z" fill="black"/>
<path d="M835.45 223.58H801.19C799.19 209.99 797.19 196.49 795.07 182.36H757.07C754.98 196.03 752.88 209.73 750.75 223.65H716.75C720.85 199.98 724.92 176.57 728.97 153.15C736.22 110.97 743.59 68.7799 750.75 26.5799C753.11 12.5799 752.81 12.5099 767.4 12.5199H798.75C810.99 82.9899 823.18 153.03 835.45 223.58ZM790.75 152.91L776.63 54.1299L775.21 54.2899C770.58 87.0099 765.95 119.74 761.26 152.91H790.75Z" fill="black"/>
<path d="M840.75 161.24H873.62C874.18 167.39 874.5 173.31 875.3 179.16C876.84 190.34 883.64 195.85 894.77 195.31C904.31 194.86 910.15 188.08 911.48 177.56C913.76 159.56 902.76 149.11 890.98 138.47C878.04 126.78 864.37 115.47 853.62 101.91C837.96 82.18 838.5 58.99 847.76 36.65C855.93 16.92 874.96 7.65004 898.88 9.25004C919.19 10.6 935.35 21.5001 940.26 39.3101C943.17 49.9201 943.35 61.3101 944.86 73.0301H909.97C909.97 68.3201 910.2 63.43 909.97 58.55C909.38 48.11 903.68 42.11 894.55 41.96C884.39 41.78 879.55 46.96 878.14 58.19C876.52 71.32 881.47 81.46 890.94 90.05C903.7 101.63 916.78 112.92 928.94 125.14C952.24 148.64 952.41 192.44 929.34 214.04C911.75 230.43 890.75 230.81 869.75 223.22C849.54 215.93 841.23 199.46 840.75 178.63C840.66 172.96 840.75 167.29 840.75 161.24Z" fill="black"/>
<path d="M1062.66 85.2898H1029.99C1029.99 78.4798 1030.51 71.9798 1029.82 65.6198C1029.32 60.2109 1027.93 54.9221 1025.7 49.9698C1022.59 43.4398 1016.48 41.1998 1009.32 42.1898C1002.96 43.0598 998.71 46.7998 997.06 52.7398C995.515 57.9865 994.661 63.4122 994.52 68.8798C994.3 101.38 994.3 133.883 994.52 166.39C994.512 171.872 995.183 177.333 996.52 182.65C998.81 191.45 1004.52 195.45 1012.74 195.3C1020.61 195.16 1026.52 190.41 1028.65 182.02C1029.44 178.631 1029.88 175.169 1029.96 171.69C1030.2 165.69 1030.09 159.69 1030.17 153.69C1030.31 153.057 1030.52 152.445 1030.82 151.87H1062.63C1062.83 168.72 1064.3 185.68 1057.46 201.8C1050.21 218.89 1031.82 228.63 1009.93 227.39C978.17 225.6 961.08 208.09 960.03 173.02C958.91 135.8 959.73 98.5198 959.82 61.2698C959.895 57.5206 960.347 53.7884 961.17 50.1298C965 31.8498 973.91 17.5398 992.97 12.2098C1013.9 6.34982 1033.68 8.03982 1049.97 24.0598C1059.66 33.5598 1061.59 46.3998 1062.53 59.1598C1063.17 67.5798 1062.66 76.0898 1062.66 85.2898Z" fill="black"/>
<path d="M361.92 151.78H394.51C394.76 168.35 395.43 184.55 389.65 200.1C383.02 217.94 366.07 227.79 343.27 227.48C313.46 227.06 293.56 208.54 293 178.63C292.26 138.63 292.28 98.63 293.06 58.63C293.41 40.13 300.01 23.48 318.17 14.97C337.83 5.77003 357.59 6.75 375.89 18.76C387.08 26.1 391.45 38.19 393.15 50.76C394.65 61.84 394.52 73.14 395.15 85.04H362.62C361.97 75.82 361.89 66.6 360.54 57.56C358.95 46.97 353.43 42.22 344.54 42.11C335.23 41.99 329.48 46.92 327.27 57.35C326.429 61.2482 325.991 65.2223 325.96 69.21C325.86 102.217 325.86 135.217 325.96 168.21C325.959 172.951 326.53 177.675 327.66 182.28C328.579 186.087 330.785 189.461 333.904 191.829C337.024 194.198 340.866 195.417 344.78 195.28C352.55 195.07 358.46 190.16 360.47 181.76C361.292 178.121 361.751 174.41 361.84 170.68C362.08 164.51 361.92 158.31 361.92 151.78Z" fill="black"/>
<path d="M613.84 192.51V223.38H535.02V13.0898H568.8V192.51H613.84Z" fill="black"/>
<path d="M628.54 12.8599H661.88V192.25H705.6V223.36H628.54V12.8599Z" fill="black"/>
<path d="M444.53 118.69C444.53 99.9298 444.37 81.1698 444.53 62.4098C444.67 48.9998 451.34 41.7798 462.97 41.7798C472.28 41.7798 478.54 46.6498 480.44 55.9498C481.398 60.593 481.901 65.3188 481.94 70.0598C482.06 102.826 482.06 135.593 481.94 168.36C481.889 171.851 481.51 175.329 480.81 178.75C478.57 190.43 471.81 196.08 461.44 195.22C451.63 194.4 444.75 186.9 444.59 175.72C444.33 156.71 444.54 137.7 444.53 118.69Z" fill="white"/>
<path d="M1150.12 118.7C1150.12 137.7 1150.52 156.7 1150 175.7C1149.57 191.24 1136.92 200.01 1124.11 193.3C1119.61 190.94 1115.66 184.74 1114.44 179.58C1112.57 171.71 1113 163.23 1112.95 155.01C1112.82 127.51 1112.82 100.014 1112.95 72.5202C1112.98 68.2789 1113.27 64.0437 1113.84 59.8402C1115.52 46.9802 1121.51 41.5502 1133.24 41.9502C1143.64 42.3102 1149.87 49.2102 1150.06 61.7302C1150.34 80.7002 1150.12 99.7002 1150.12 118.7Z" fill="white"/>
<path d="M790.75 152.91H761.22C765.91 119.74 770.54 87.0099 775.17 54.2899L776.59 54.1299L790.75 152.91Z" fill="white"/>
<path d="M3.75 65.04C16.66 49.15 29.42 33.31 42.4 17.65C43.65 16.15 46.11 15.25 48.16 14.87C68 11.24 87.92 8.01001 107.72 4.17001C115.529 2.6488 123.554 2.60131 131.38 4.03001C152.38 7.68001 173.46 10.56 194.47 14.03C197.152 14.533 199.604 15.8781 201.47 17.87C213.89 31.87 225.99 46.06 238.38 60.04C240.78 62.75 241.09 64.68 238.97 67.76C201.757 121.98 164.607 176.233 127.52 230.52C126.25 232.37 124.3 233.75 122.19 235.82C82.34 178.37 43.09 121.77 3.75 65.04ZM82.27 90.39L121.95 218.82H123.23C136.39 176.21 149.54 133.59 162.87 90.42L82.27 90.39ZM17.05 70.98L16.31 72.22C47.95 118.06 79.58 163.91 111.65 210.37C111.92 208.98 112.12 208.59 112.03 208.29C100.14 169.74 88.28 131.18 76.18 92.69C75.6 90.84 73.27 88.87 71.33 88.22C59.47 84.22 47.49 80.59 35.55 76.83C29.3767 74.89 23.21 72.94 17.05 70.98ZM229.57 70.98C226.57 71.77 224.98 72.12 223.44 72.6C207.44 77.65 191.44 82.88 175.31 87.68C171.4 88.85 169.54 90.81 168.38 94.6C157.047 131.76 145.613 168.893 134.08 206C133.915 207.243 133.845 208.497 133.87 209.75C166.09 163.03 197.42 117.58 229.57 70.99V70.98ZM85.34 83.08H160.21L122.75 38.84L85.34 83.08ZM192.75 22.47L128.58 35.9L166.49 80.7L192.75 22.47ZM52.23 22.35C61.23 42.35 69.7 61.05 78.53 80.63L116.43 35.79L52.23 22.35ZM45.96 23.9C34.69 37.16 24.05 49.58 12.81 62.78L71.94 81.37L45.96 23.9ZM232.62 62.58C221.24 49.29 210.62 36.9 199.44 23.83C190.72 43.22 182.51 61.48 173.62 81.23L232.62 62.58ZM177.07 18.83V17.58C163.83 15.37 150.52 13.49 137.37 10.85C128.055 8.87878 118.438 8.82096 109.1 10.68C95.6 13.4 81.95 15.35 66.84 17.89C68.2758 18.5994 69.7594 19.2076 71.28 19.71C84.07 22.43 96.94 24.85 109.66 27.85C118.164 29.9599 127.056 29.9599 135.56 27.85C149.3 24.42 163.22 21.81 177.07 18.86V18.83Z" fill="black" stroke="black" stroke-width="6" stroke-miterlimit="10"/>
</g>
<defs>
<clipPath id="clip0_666_358">
<rect width="1184.75" height="240.45" fill="white"/>
</clipPath>
</defs>
</svg>
